<svg xmlns="http://www.w3.org/2000/svg" width="180" height="120" fill="none">
  <path fill-rule="evenodd" clip-rule="evenodd"
    d="M13 91.6h155.8V28.3H13v63.3zm77.9-3.7C47.4 88 16 75.2 16 60S47.4 32 91 32c43.5 0 74.8 12.7 74.8 28S134.4 88 91 88z"
    fill="#2E2E2E" />
  <path
    d="M65.7 47.8c-.4.6-.4 1.3-.4 2V58l5.5-7.2c.8-1 1.8-2.5 1.8-3.1h14.6a16 16 0 00-3 3l-5.4 6.5 7.7 11.6 1.6 2H71.3c0-.7-.7-2-1.4-3.1l-4.6-7V69c0 .7 0 1.3.4 2h-14c.3-.7.3-1.3.3-2V49.8c0-.7 0-1.4-.4-2h14zm52 0H90.6c.3.6.3 1.3.3 2v19.1c0 .7 0 1.3-.3 2h27v-6.4c-.6.3-1.3.3-2 .3h-11.3v-3h11v-4.9h-11v-3h11.4c.6 0 1.3 0 2 .3v-6.4zm37.5 21.1c.2.7.6 1.4 1.1 2h-14.7c0-.7-.2-1.3-.4-2l-.6-1.3-.1-.3H132v.3l-.6 1.3c-.2.7-.4 1.3-.3 2h-11.6c.4-.6.8-1.2 1-2l7-19.1c.2-.7.5-1.3.4-2h19.5c-.1.7.2 1.3.5 2l7.3 19.1zm-16.5-6.5l-2.1-5.4-.4-1.5-.5 1.5-1.9 5.4h4.9zm-94-12.6c0-.7 0-1.4.3-2H29.7c.3.6.3 1.3.3 2v19.1c0 .7 0 1.3-.3 2H45c-.4-.7-.4-1.3-.4-2V49.8zm105.8-.2a3 3 0 106.1.2v-.2a3 3 0 00-2.9-3h-.1a3 3 0 00-3 2.8v.2zm5.5 0c0 1.3-1 2.5-2.4 2.5-1.3 0-2.4-1-2.5-2.4v-.1c0-1.3 1-2.4 2.3-2.5h.2c1.3 0 2.4 1 2.4 2.4v.1zm-1 1.8h-.5l-.8-1.3h-.7v1.3h-.6v-3.6h1.4c.6 0 1.1.5 1.1 1.2 0 .4-.2.8-.6 1l.8 1.4zm-1.3-1.8c.4 0 .7-.2.7-.6 0-.4-.3-.7-.6-.7H153v1.3h.7"
    fill="#2E2E2E" />
</svg>