<svg xmlns="http://www.w3.org/2000/svg" xmlns:xlink="http://www.w3.org/1999/xlink"
  viewBox="0 0 618 354" width="618" height="354" preserveAspectRatio="xMidYMid meet"
  style="width: 100%; height: 100%; transform: translate3d(0px, 0px, 0px); content-visibility: visible;">
  <defs>
    <clipPath id="__lottie_element_2">
      <rect width="618" height="354" x="0" y="0"></rect>
    </clipPath>
    <g id="__lottie_element_3">
      <g transform="matrix(1,0,0,1,432,5463.5)" opacity="1" style="display: block;">
        <g opacity="1" transform="matrix(1,0,0,1,0,0)">
          <path stroke-linecap="butt" stroke-linejoin="miter" fill-opacity="0" stroke-miterlimit="4"
            stroke="rgb(26,26,26)" stroke-opacity="1" stroke-width="20"
            d=" M88,-5412.5 C88,-5412.5 -310,-5457.5 -357,-5260.5 C-381.50799560546875,-5157.77392578125 -185,-5155.5 -185,-5155.5 C-185,-5155.5 92,-5141.5 107.5,-5301.5 C114.35399627685547,-5372.255859375 24,-5372.5 24,-5372.5"></path>
        </g>
      </g>
    </g>
    <mask id="__lottie_element_3_1" mask-type="alpha">
      <use xlink:href="#__lottie_element_3"></use>
    </mask>
  </defs>
  <g clip-path="url(#__lottie_element_2)">
    <g mask="url(#__lottie_element_3_1)" style="display: block;">
      <g transform="matrix(1,0,0,1,68,41)" opacgitity="1">
        <g opacity="1" transform="matrix(1,0,0,1,237.41000366210938,136.98399353027344)">
          <path fill="rgb(255,210,95)" fill-opacity="1"
            d=" M-84.59500122070312,-101.63099670410156 C-83.8239974975586,-101.97699737548828 -83.03199768066406,-102.25599670410156 -82.25,-102.56900024414062 C-82.25,-102.56900024414062 -82.56300354003906,-102.44599914550781 -82.56300354003906,-102.44599914550781 C-81.78299713134766,-102.80999755859375 -80.96199798583984,-103.08000183105469 -80.11799621582031,-103.25 C-80.11799621582031,-103.25 -80.40799713134766,-103.1719970703125 -80.40799713134766,-103.1719970703125 C-76.48899841308594,-104.53399658203125 -75.16000366210938,-104.60099792480469 -71.74400329589844,-105.7509994506836 C-70.17400360107422,-106.4260025024414 -68.56800079345703,-107.01100158691406 -66.93199920654297,-107.50399780273438 C-64.26399993896484,-108.10700225830078 -61.91899871826172,-108.8550033569336 -59.439998626708984,-109.53600311279297 C-59.439998626708984,-109.53600311279297 -59.696998596191406,-109.4469985961914 -59.696998596191406,-109.4469985961914 C-56.54600143432617,-110.6510009765625 -53.32899856567383,-111.6760025024414 -50.0620002746582,-112.51699829101562 C-49.43000030517578,-112.7239990234375 -48.81100082397461,-112.97100067138672 -48.20899963378906,-113.25399780273438 C-46.645999908447266,-113.5999984741211 -45.21699905395508,-113.9010009765625 -43.93299865722656,-114.21399688720703 C-40.71699905395508,-115.00700378417969 -38.09299850463867,-115.4530029296875 -34.71099853515625,-116.29100036621094 C-32.29899978637695,-116.89299774169922 -31.540000915527344,-116.79299926757812 -28.54800033569336,-117.54100036621094 C-28.54800033569336,-117.54100036621094 -21.44700050354004,-119.03700256347656 -21.44700050354004,-119.03700256347656 C-19.604999542236328,-119.40599822998047 -17.996999740600586,-119.66200256347656 -16.981000900268555,-119.75199890136719 C-16.981000900268555,-119.75199890136719 -17.260000228881836,-119.75199890136719 -17.260000228881836,-119.75199890136719 C-14.949000358581543,-120.12000274658203 -12.54800033569336,-120.56700134277344 -10.12600040435791,-121.0250015258789 C-8.909000396728516,-121.24800109863281 -7.703000068664551,-121.51599884033203 -6.486000061035156,-121.69499969482422 C-6.486000061035156,-121.69499969482422 -2.86899995803833,-122.22000122070312 -2.86899995803833,-122.22000122070312 C2.513000011444092,-122.97799682617188 6.979000091552734,-123.77100372314453 11.467000007629395,-124.56400299072266 C15.074000358581543,-125.11100006103516 17.305999755859375,-125.0999984741211 21.514999389648438,-125.68099975585938 C25.322999954223633,-126.28399658203125 28.527999877929688,-126.90899658203125 33.494998931884766,-127.45600128173828 C36.74399948120117,-127.7020034790039 39.30099868774414,-127.85800170898438 42.08100128173828,-128.01400756835938 C45.095001220703125,-128.2259979248047 47.57500076293945,-128.36000061035156 50.25299835205078,-128.51600646972656 C51.91400146484375,-128.5570068359375 53.56800079345703,-128.73699951171875 55.20000076293945,-129.052001953125 C57.435001373291016,-129.50100708007812 59.70800018310547,-129.73800659179688 61.987998962402344,-129.7570037841797 C63.53900146484375,-129.8459930419922 65.09100341796875,-129.8800048828125 66.62100219726562,-129.89100646972656 C69.06600189208984,-130.13600158691406 70.80799865722656,-130.3699951171875 73.2300033569336,-130.5260009765625 C76.13300323486328,-130.71600341796875 79.92900085449219,-130.88299560546875 82.7760009765625,-130.9510040283203 C86.93000030517578,-131.0290069580078 90.4469985961914,-131.26400756835938 94.26499938964844,-131.36500549316406 C94.26499938964844,-131.36500549316406 99.84700012207031,-131.4969940185547 99.84700012207031,-131.4969940185547 C101.37699890136719,-131.39700317382812 103.64299774169922,-131.3070068359375 104.2239990234375,-131.18499755859375 C105.40799713134766,-130.91700744628906 109.32599639892578,-130.88299560546875 112.3740005493164,-130.77200317382812 C114.71900177001953,-130.67100524902344 116.73999786376953,-130.77200317382812 119.00599670410156,-130.85000610351562 C119.58599853515625,-130.85000610351562 121.3949966430664,-130.71600341796875 122.75700378417969,-130.6490020751953 C122.75700378417969,-130.6490020751953 127.40299987792969,-130.6490020751953 127.40299987792969,-130.6490020751953 C127.40299987792969,-130.6490020751953 133.26300048828125,-130.34800720214844 133.26300048828125,-130.34800720214844 C133.26300048828125,-130.34800720214844 143.59100341796875,-130.51600646972656 143.59100341796875,-130.51600646972656 C143.59100341796875,-130.51600646972656 147.7550048828125,-130.60400390625 147.7550048828125,-130.60400390625 C149.20700073242188,-130.60400390625 150.85899353027344,-130.51499938964844 153.0709991455078,-130.34800720214844 C154.55499267578125,-130.2469940185547 157,-130.2239990234375 158.9199981689453,-130.17999267578125 C158.9199981689453,-130.17999267578125 164.56900024414062,-130.07899475097656 164.56900024414062,-130.07899475097656 C164.56900024414062,-130.07899475097656 174.68499755859375,-129.7570037841797 174.68499755859375,-129.7570037841797 C178.79299926757812,-129.36599731445312 178.79299926757812,-129.38699340820312 182.14300537109375,-129.10800170898438 C182.14300537109375,-129.10800170898438 194.10000610351562,-128.1479949951172 194.10000610351562,-128.1479949951172 C197.24200439453125,-128.23800659179688 200.38699340820312,-128.11099243164062 203.51199340820312,-127.76799774169922 C204.43899536132812,-127.69000244140625 205.3990020751953,-127.66799926757812 206.31399536132812,-127.61199951171875 C206.31399536132812,-127.61199951171875 211.4499969482422,-128.29299926757812 211.4499969482422,-128.29299926757812 C207.46400451660156,-128.92999267578125 205.8679962158203,-129.41000366210938 201.2570037841797,-130.11300659179688 C197.10299682617188,-130.71600341796875 193.05099487304688,-131.22999572753906 186.47500610351562,-131.76600646972656 C186.47500610351562,-131.76600646972656 182.51100158691406,-132.1230010986328 182.51100158691406,-132.1230010986328 C182.51100158691406,-132.1230010986328 179.45199584960938,-132.61500549316406 179.45199584960938,-132.61500549316406 C179.45199584960938,-132.61500549316406 171,-133.0050048828125 171,-133.0050048828125 C163.56500244140625,-133.22799682617188 155.7050018310547,-133.52999877929688 149.50799560546875,-133.52999877929688 C147.197998046875,-133.52999877929688 146.8730010986328,-133.52999877929688 142.5970001220703,-133.86500549316406 C139.2480010986328,-134.08799743652344 137.48399353027344,-134.32200622558594 135.5970001220703,-134.58999633789062 C135.5970001220703,-134.58999633789062 126.4749984741211,-134.7239990234375 126.4749984741211,-134.7239990234375 C124.59200286865234,-134.89500427246094 122.43699645996094,-135.0260009765625 120.01100158691406,-135.11500549316406 C117.5770034790039,-135.20399475097656 114.89700317382812,-135.11500549316406 111.94999694824219,-135.04800415039062 C105.74199676513672,-134.89100646972656 100.61799621582031,-134.97000122070312 97.03399658203125,-135.23800659179688 C97.03399658203125,-135.36099243164062 97.78299713134766,-135.5279998779297 96.9000015258789,-135.56100463867188 C93.41600036621094,-135.6959991455078 91.7300033569336,-136.0760040283203 86.99700164794922,-135.96400451660156 C82.63099670410156,-135.70799255371094 77.9749984741211,-135.49400329589844 74.86000061035156,-135.16000366210938 C72.30400085449219,-134.89100646972656 69.37899780273438,-134.7239990234375 66.00700378417969,-134.57899475097656 C64.04900360107422,-134.52099609375 62.09600067138672,-134.35299682617188 60.15700149536133,-134.07699584960938 C56.40599822998047,-133.54100036621094 51.91699981689453,-133.10499572753906 46.4010009765625,-132.8260040283203 C44.45500183105469,-132.74600219726562 42.51300048828125,-132.56700134277344 40.584999084472656,-132.2899932861328 C40.584999084472656,-132.2899932861328 41.56700134277344,-132.2899932861328 41.56700134277344,-132.2899932861328 C41.56700134277344,-132.2899932861328 40.8650016784668,-132.2899932861328 40.8650016784668,-132.2899932861328 C38.63100051879883,-132.11199951171875 36.55400085449219,-131.68699645996094 34.08700180053711,-131.58700561523438 C33.540000915527344,-131.58700561523438 32.22200012207031,-131.41900634765625 31.240999221801758,-131.3070068359375 C31.240999221801758,-131.3070068359375 16.034000396728516,-129.6219940185547 16.034000396728516,-129.6219940185547 C15.777000427246094,-129.6219940185547 15.005999565124512,-129.49899291992188 14.515000343322754,-129.3979949951172 C10.640999794006348,-128.58299255371094 6.598999977111816,-127.87999725341797 1.1169999837875366,-127.16500091552734 C-0.7919999957084656,-126.91999816894531 -2.8350000381469727,-126.61900329589844 -4.945000171661377,-126.31700134277344 C-5.994999885559082,-126.14900207519531 -7.066999912261963,-126.01499938964844 -8.126999855041504,-125.82599639892578 C-8.126999855041504,-125.82599639892578 -11.309000015258789,-125.2229995727539 -11.309000015258789,-125.2229995727539 C-11.309000015258789,-125.2229995727539 -13.753999710083008,-124.54199981689453 -13.753999710083008,-124.54199981689453 C-13.753999710083008,-124.54199981689453 -12.637999534606934,-124.70899963378906 -12.637999534606934,-124.70899963378906 C-12.637999534606934,-124.70899963378906 -13.118000030517578,-124.63099670410156 -13.118000030517578,-124.63099670410156 C-13.118000030517578,-124.63099670410156 -13.46399974822998,-124.63099670410156 -13.46399974822998,-124.63099670410156 C-16.232999801635742,-124.08399963378906 -18.767000198364258,-123.51499938964844 -21.826000213623047,-122.97799682617188 C-22.94300079345703,-122.80000305175781 -24.863000869750977,-122.40899658203125 -25.868000030517578,-122.17500305175781 C-25.868000030517578,-122.17500305175781 -29.149999618530273,-121.427001953125 -29.149999618530273,-121.427001953125 C-30.267000198364258,-121.14700317382812 -31.461999893188477,-120.86900329589844 -32.790000915527344,-120.56700134277344 C-35.68199920654297,-119.93099975585938 -37.05500030517578,-119.3270034790039 -40.4379997253418,-118.6240005493164 C-42.71099853515625,-118.43900299072266 -44.957000732421875,-118.00900268554688 -47.137001037597656,-117.33999633789062 C-48.979000091552734,-116.88300323486328 -50.00600051879883,-116.6259994506836 -50.810001373291016,-116.47000122070312 C-51.61399841308594,-116.31300354003906 -52.172000885009766,-116.2239990234375 -53.042999267578125,-116 C-53.042999267578125,-116 -66.02799987792969,-111.99199676513672 -66.02799987792969,-111.99199676513672 C-67.55699920654297,-111.55699920654297 -69.45500183105469,-110.8759994506836 -71.12999725341797,-110.38500213623047 C-71.12999725341797,-110.38500213623047 -80.33000183105469,-107.48100280761719 -80.33000183105469,-107.48100280761719 C-82.48500061035156,-106.81199645996094 -84.5719985961914,-106.17500305175781 -85.4990005493164,-106.00800323486328 C-88.43499755859375,-105.16200256347656 -91.322998046875,-104.16000366210938 -94.1520004272461,-103.00399780273438 C-96.38500213623047,-102.13400268554688 -98.0479965209961,-101.5530014038086 -99.73400115966797,-100.98300170898438 C-102.24299621582031,-100.1760025024414 -104.70700073242188,-99.23300170898438 -107.11399841308594,-98.15899658203125 C-107.11399841308594,-98.15899658203125 -116.35800170898438,-94.13999938964844 -116.35800170898438,-94.13999938964844 C-119.42900085449219,-92.76599884033203 -122.41000366210938,-91.2030029296875 -125.4800033569336,-89.77400207519531 C-127.24400329589844,-88.93599700927734 -129.2760009765625,-87.86499786376953 -131.15199279785156,-86.91500091552734 C-132.68099975585938,-86.13400268554688 -134.0989990234375,-85.27400207519531 -135.3719940185547,-84.60399627685547 C-138.08999633789062,-83.49500274658203 -140.7050018310547,-82.1510009765625 -143.18699645996094,-80.58499908447266 C-144.3040008544922,-79.90399932861328 -145.4199981689453,-79.25599670410156 -146.60400390625,-78.4749984741211 C-146.60400390625,-78.4749984741211 -148.41200256347656,-77.35800170898438 -148.41200256347656,-77.35800170898438 C-149.7969970703125,-76.55500030517578 -150.1540069580078,-76.51000213623047 -152.52099609375,-75.01399993896484 C-153.00100708007812,-74.69000244140625 -153.9949951171875,-74.05400085449219 -154.48599243164062,-73.69599914550781 C-157.2550048828125,-71.7760009765625 -160.66000366210938,-69.2300033569336 -164.95899963378906,-66.33799743652344 C-164.95899963378906,-66.33799743652344 -168.55299377441406,-63.87200164794922 -168.55299377441406,-63.87200164794922 C-168.55299377441406,-63.87200164794922 -171.86900329589844,-61.15800094604492 -171.86900329589844,-61.15800094604492 C-174.1020050048828,-59.404998779296875 -176.21299743652344,-57.67499923706055 -178.1439971923828,-56.03300094604492 C-181.0800018310547,-53.34199905395508 -184.47500610351562,-50.55099868774414 -187.6009979248047,-47.7599983215332 C-189.6219940185547,-46.21900177001953 -193.718994140625,-42.176998138427734 -196.3209991455078,-39.944000244140625 C-197.71600341796875,-38.24700164794922 -199.14500427246094,-36.595001220703125 -200.68600463867188,-34.84199905395508 C-201.4669952392578,-33.99399948120117 -202.25999450683594,-33.12300109863281 -203.0970001220703,-32.24100112915039 C-203.93499755859375,-31.358999252319336 -204.7050018310547,-30.39900016784668 -205.58700561523438,-29.448999404907227 C-206.86500549316406,-28.09600067138672 -208.06199645996094,-26.66900062561035 -209.17100524902344,-25.17300033569336 C-209.4499969482422,-24.770999908447266 -209.8070068359375,-24.31399917602539 -210.18699645996094,-23.82200050354004 C-210.56700134277344,-23.33099937438965 -210.9459991455078,-22.795000076293945 -211.30299377441406,-22.281999588012695 C-212.06300354003906,-21.253999710083008 -212.77699279785156,-20.29400062561035 -213.1230010986328,-19.70199966430664 C-213.7259979248047,-18.586000442504883 -214.6750030517578,-17.224000930786133 -215.75799560546875,-15.626999855041504 C-215.75799560546875,-15.626999855041504 -219.04100036621094,-10.335000038146973 -219.04100036621094,-10.335000038146973 C-219.3979949951172,-9.833000183105469 -219.81100463867188,-9.218000411987305 -220.04600524902344,-8.916999816894531 C-220.4250030517578,-8.414999961853027 -220.6479949951172,-8.236000061035156 -221.01699829101562,-7.677999973297119 C-221.82000732421875,-6.460999965667725 -222.5240020751953,-5.343999862670898 -223.25,-4.059999942779541 C-223.25,-4.059999942779541 -224.36599731445312,-1.972000002861023 -224.36599731445312,-1.972000002861023 C-224.8280029296875,-1.1480000019073486 -225.24099731445312,-0.2980000078678131 -225.6060028076172,0.5730000138282776 C-225.6060028076172,0.5730000138282776 -226.84500122070312,3.4549999237060547 -226.84500122070312,3.4549999237060547 C-228.50599670410156,6.671000003814697 -229.9969940185547,9.972000122070312 -231.31100463867188,13.345999717712402 C-232.50599670410156,16.920000076293945 -233.7220001220703,20.29199981689453 -234.50399780273438,23.461999893188477 C-234.55999755859375,23.663000106811523 -234.7270050048828,24.577999114990234 -234.8280029296875,25.125999450683594 C-235.09500122070312,26.37700080871582 -235.28500366210938,27.760000228881836 -235.54200744628906,29.17799949645996 C-235.7209930419922,30.160999298095703 -235.8769989013672,30.98699951171875 -236.06700134277344,32.013999938964844 C-236.81100463867188,38.89400100708008 -236.3419952392578,45.85100173950195 -234.6820068359375,52.569000244140625 C-232.9080047607422,59.03200149536133 -230.07899475097656,65.15899658203125 -226.3090057373047,70.70099639892578 C-225.69500732421875,71.53900146484375 -225.10299682617188,72.43099975585938 -224.4669952392578,73.24700164794922 C-223.8300018310547,74.06099700927734 -223.2270050048828,74.83300018310547 -222.7030029296875,75.47899627685547 C-221.9550018310547,76.45099639892578 -221.34100341796875,77.16600036621094 -221.08399963378906,77.52300262451172 C-219.38499450683594,79.78900146484375 -217.5189971923828,81.9229965209961 -215.5019989013672,83.90899658203125 C-213.1300048828125,86.21499633789062 -210.61599731445312,88.37000274658203 -207.9759979248047,90.36199951171875 C-206.91600036621094,91.19999694824219 -205.6540069580078,92.10399627685547 -204.52699279785156,92.9530029296875 C-203.3000030517578,93.9229965209961 -201.9759979248047,94.76000213623047 -200.57400512695312,95.4540023803711 C-200.57400512695312,95.4540023803711 -199.45799255371094,95.96700286865234 -199.45799255371094,95.96700286865234 C-197.58200073242188,97.19499969482422 -196.65499877929688,97.7979965209961 -195.69500732421875,98.33499908447266 C-194.73500061035156,98.87000274658203 -193.82000732421875,99.45099639892578 -191.85499572753906,100.45600128173828 C-188.7729949951172,102.11900329589844 -185.4459991455078,103.70500183105469 -182.07400512695312,105.26799774169922 C-178.02099609375,107.28900146484375 -174.73899841308594,108.99800109863281 -169.9600067138672,110.93900299072266 C-160.13499450683594,114.84700012207031 -151.3820037841797,118.00700378417969 -142.17100524902344,120.7979965209961 C-139.05499267578125,121.8479995727539 -135.88800048828125,122.73799896240234 -132.68099975585938,123.46600341796875 C-130.593994140625,123.96800231933594 -128.48300170898438,124.48300170898438 -126.42900085449219,124.91899871826172 C-122.5770034790039,125.75599670410156 -118.78099822998047,126.47000122070312 -114.90699768066406,127.1510009765625 C-112.95500183105469,127.447998046875 -111.0260009765625,127.87999725341797 -109.13500213623047,128.44500732421875 C-108.95600128173828,128.5229949951172 -108.36399841308594,128.6699981689453 -107.77300262451172,128.81500244140625 C-104.4229965209961,129.37399291992188 -100.95099639892578,129.92999267578125 -97.7239990234375,130.35400390625 C-93.88400268554688,130.5659942626953 -89.64099884033203,130.91400146484375 -83.20999908447266,131.53900146484375 C-83.20999908447266,131.53900146484375 -83.55599975585938,131.53900146484375 -83.55599975585938,131.53900146484375 C-79.88300323486328,131.75100708007812 -75.80799865722656,132.29800415039062 -70.22599792480469,132.86700439453125 C-70.22599792480469,132.86700439453125 -75.40599822998047,132.63299560546875 -75.40599822998047,132.63299560546875 C-72.41400146484375,133.08099365234375 -69.46600341796875,133.5050048828125 -66.4739990234375,133.906005859375 C-66.4739990234375,133.906005859375 -61.125999450683594,134.10699462890625 -61.125999450683594,134.10699462890625 C-55.979000091552734,134.60899353027344 -51.75899887084961,135 -48.08599853515625,135.4010009765625 C-44.01499938964844,135.9320068359375 -39.90299987792969,136.0760040283203 -35.80500030517578,135.8260040283203 C-35.80500030517578,135.8260040283203 -34.09600067138672,135.8260040283203 -34.09600067138672,135.8260040283203 C-31.75200080871582,135.927001953125 -29.631000518798828,135.96099853515625 -27.46500015258789,136.01600646972656 C-27.46500015258789,136.01600646972656 -24.4950008392334,136.01600646972656 -24.4950008392334,136.01600646972656 C-20.464000701904297,135.8489990234375 -14.982000350952148,135.78199768066406 -10.85099983215332,135.5030059814453 C-8.998000144958496,135.38099670410156 -6.09499979019165,135.29100036621094 -3.617000102996826,135.16799926757812 C-0.7580000162124634,135.0330047607422 2.1570000648498535,134.8990020751953 4.947999954223633,134.73199462890625 C5.185999870300293,134.5850067138672 5.458000183105469,134.5 5.739999771118164,134.48599243164062 C6.855999946594238,134.3520050048828 8.206999778747559,134.16400146484375 9.71399974822998,134.05099487304688 C10.845000267028809,133.91799926757812 11.98900032043457,133.91799926757812 13.119000434875488,134.05099487304688 C15.666000366210938,134.15899658203125 18.216999053955078,134.04800415039062 20.7450008392334,133.71600341796875 C23.503000259399414,133.4600067138672 26.249000549316406,133.1580047607422 29.242000579833984,132.91299438476562 C31.378000259399414,132.77999877929688 33.500999450683594,132.48899841308594 35.59400177001953,132.04200744628906 C37.57699966430664,131.66600036621094 39.58399963378906,131.42999267578125 41.60100173950195,131.33900451660156 C43.755001068115234,130.7469940185547 48.16600036621094,130.2209930419922 52.832000732421875,129.28399658203125 C55.57899856567383,128.79299926757812 58.481998443603516,128.3350067138672 61.29499816894531,127.87799835205078 C63.32699966430664,127.57499694824219 65.19200134277344,127.1510009765625 66.98999786376953,126.76000213623047 C68.78700256347656,126.36900329589844 70.52999877929688,125.94400024414062 72.29299926757812,125.4749984741211 C74.05699920654297,125.00599670410156 76.13300323486328,124.50599670410156 78.05400085449219,123.96900177001953 C79.9739990234375,123.43299865722656 81.88300323486328,122.85199737548828 83.78199768066406,122.36100006103516 C88.14700317382812,121.36799621582031 91.21700286865234,120.75399780273438 94.45500183105469,119.77100372314453 C94.45500183105469,119.77100372314453 100.77400207519531,117.91899871826172 100.77400207519531,117.91899871826172 C101.88999938964844,117.6050033569336 102.8949966430664,117.3030014038086 103.91100311279297,116.95800018310547 C103.91100311279297,116.95800018310547 106.83599853515625,115.90799713134766 106.83599853515625,115.90799713134766 C109.76200103759766,114.79199981689453 112.6760025024414,113.80799865722656 115.5780029296875,112.8030014038086 C115.5780029296875,112.8030014038086 124.16400146484375,109.4540023803711 124.16400146484375,109.4540023803711 C125.39199829101562,108.95099639892578 126.62000274658203,108.51699829101562 127.66999816894531,108.08200073242188 C128.718994140625,107.64600372314453 129.63499450683594,107.28900146484375 130.2830047607422,107.07599639892578 C132.64100646972656,106.22599792480469 134.9510040283203,105.2509994506836 137.2050018310547,104.1510009765625 C139.43699645996094,103.03500366210938 141.61599731445312,101.91799926757812 143.71400451660156,100.8010025024414 C145.15499877929688,100.02999877929688 146.572998046875,99.26100158691406 147.68800354003906,98.56900024414062 C148.80499267578125,97.87699890136719 149.21800231933594,97.4520034790039 152.04200744628906,95.95700073242188 C154.6439971923828,94.63800048828125 157.83700561523438,93.16600036621094 161.031005859375,91.29000091552734 C161.031005859375,91.29000091552734 167.29400634765625,87.05699920654297 167.29400634765625,87.05699920654297 C169.38099670410156,85.52799987792969 171.61500549316406,83.96499633789062 174.1490020751953,82.33599853515625 C175.26499938964844,81.56400299072266 176.22500610351562,80.75900268554688 177.218994140625,79.96700286865234 C177.218994140625,79.96700286865234 180.17799377441406,77.73400115966797 180.17799377441406,77.73400115966797 C180.17799377441406,77.73400115966797 183.0919952392578,75.50199890136719 183.0919952392578,75.50199890136719 C184.04100036621094,74.75399780273438 184.95599365234375,73.97200012207031 185.88299560546875,73.21399688720703 C188.25,71.38200378417969 190.4669952392578,69.36599731445312 192.51499938964844,67.18399810791016 C192.83900451660156,66.83899688720703 194.03399658203125,65.66600036621094 194.63600158691406,65.11799621582031 C195.6739959716797,64.14700317382812 196.74600219726562,63.209999084472656 197.75100708007812,62.172000885009766 C197.75100708007812,62.172000885009766 200.73199462890625,58.96500015258789 200.73199462890625,58.96500015258789 C201.61500549316406,58.005001068115234 202.60800170898438,56.979000091552734 203.5229949951172,56.029998779296875 C204.63999938964844,54.73500061035156 205.88999938964844,53.39500045776367 206.8730010986328,52.244998931884766 C208.0780029296875,50.75 209.1060028076172,49.47600173950195 210.04299926757812,48.04800033569336 C212.15899658203125,45.51599884033203 214.13999938964844,42.87799835205078 215.98300170898438,40.141998291015625 C215.98300170898438,40.141998291015625 218.3719940185547,36.14500045776367 218.3719940185547,36.14500045776367 C219.09800720214844,34.861000061035156 219.7570037841797,33.55500030517578 220.60499572753906,32.14799880981445 C222.71499633789062,28.55299949645996 222.83799743652344,27.68199920654297 224.61399841308594,24.009000778198242 C225.3979949951172,22.788999557495117 226.10699462890625,21.520000457763672 226.73500061035156,20.21299934387207 C227.4720001220703,18.715999603271484 228.33099365234375,17.007999420166016 229.2239990234375,14.96500015258789 C230.17300415039062,12.520000457763672 230.9550018310547,10.38700008392334 231.625,8.333999633789062 C232.2949981689453,6.2789998054504395 232.74200439453125,4.248000144958496 233.39999389648438,2.0810000896453857 C233.81300354003906,0.7630000114440918 234.17100524902344,-0.24199999868869781 234.51699829101562,-1.6490000486373901 C235.21800231933594,-4.442999839782715 235.7729949951172,-7.270999908447266 236.17999267578125,-10.123000144958496 C236.4149932861328,-11.552000045776367 236.47000122070312,-12.991999626159668 236.60400390625,-14.420999526977539 C236.7550048828125,-15.842000007629395 236.81100463867188,-17.270000457763672 236.77200317382812,-18.697999954223633 C236.77200317382812,-18.697999954223633 236.77200317382812,-22.73900032043457 236.77200317382812,-22.73900032043457 C236.77200317382812,-24.167999267578125 236.61700439453125,-25.652999877929688 236.53700256347656,-27.204999923706055 C236.49000549316406,-28.631000518798828 236.3470001220703,-30.052000045776367 236.11399841308594,-31.458999633789062 C235.96099853515625,-32.88800048828125 235.73300170898438,-34.30799865722656 235.4320068359375,-35.7130012512207 C235.11900329589844,-37.108001708984375 234.8179931640625,-38.481998443603516 234.51699829101562,-39.79899978637695 C234.21499633789062,-41.117000579833984 233.781005859375,-42.4119987487793 233.31100463867188,-43.573001861572266 C232.02000427246094,-46.5099983215332 230.38600158691406,-49.28300094604492 228.4429931640625,-51.834999084472656 C226.93299865722656,-53.94300079345703 225.27200317382812,-55.93899917602539 223.47500610351562,-57.80799865722656 C222.63699340820312,-58.73500061035156 221.6999969482422,-59.54999923706055 220.76199340820312,-60.44300079345703 C219.8249969482422,-61.33700180053711 218.7740020751953,-62.152000427246094 217.62399291992188,-62.96699905395508 C217.07699584960938,-63.356998443603516 216.22900390625,-64.13899993896484 215.39100646972656,-64.70800018310547 C210.67599487304688,-68.2249984741211 205.50900268554688,-71.08999633789062 200.02999877929688,-73.22699737548828 C200.02999877929688,-73.22699737548828 192.35800170898438,-76.20800018310547 192.35800170898438,-76.20800018310547 C189.91299438476562,-77.25800323486328 187.4239959716797,-78.1729965209961 185.4029998779297,-78.95500183105469 C185.4029998779297,-78.95500183105469 181.19400024414062,-80.6520004272461 181.19400024414062,-80.6520004272461 C180.47900390625,-80.93099975585938 179.41799926757812,-81.2770004272461 178.5030059814453,-81.60099792480469 C175.15499877929688,-82.71800231933594 171.8040008544922,-83.63300323486328 168.35400390625,-84.43699645996094 C168.35400390625,-84.43699645996094 163.24200439453125,-85.55400085449219 163.24200439453125,-85.55400085449219 C163.24200439453125,-85.55400085449219 157.60299682617188,-87.06099700927734 157.60299682617188,-87.06099700927734 C157.60299682617188,-87.06099700927734 154.4429931640625,-87.21700286865234 154.4429931640625,-87.21700286865234 C156.60899353027344,-86.5250015258789 153.76199340820312,-86.90399932861328 152.5,-86.97200012207031 C154.61000061035156,-86.33499908447266 157.03399658203125,-85.70999908447266 160.0919952392578,-84.9280014038086 C160.0919952392578,-84.9280014038086 162.3249969482422,-84.40399932861328 162.3249969482422,-84.40399932861328 C164.447998046875,-84.01300048828125 166.63499450683594,-83.5770034790039 168.85699462890625,-83.10800170898438 C171.27999877929688,-82.38300323486328 173.4459991455078,-81.64600372314453 175.42100524902344,-81.07599639892578 C178.54800415039062,-80.1719970703125 180.5240020751953,-79.45700073242188 183.03599548339844,-78.56400299072266 C187.85899353027344,-76.8219985961914 191.74400329589844,-75.15899658203125 196.89100646972656,-72.87000274658203 C197.63900756835938,-72.52400207519531 198.2760009765625,-72.15599822998047 199.00100708007812,-71.75299835205078 C199.00100708007812,-71.75299835205078 196.8800048828125,-72.37899780273438 196.8800048828125,-72.37899780273438 C196.8800048828125,-72.37899780273438 199.76100158691406,-70.77100372314453 199.76100158691406,-70.77100372314453 C202.9980010986328,-68.99600219726562 206.1020050048828,-67.16400146484375 210.31100463867188,-64.4520034790039 C217.00999450683594,-60.09700012207031 223.22900390625,-54.69300079345703 227.6060028076172,-47.99399948120117 C228.99400329589844,-45.821998596191406 230.1580047607422,-43.513999938964844 231.0780029296875,-41.10499954223633 C231.2899932861328,-40.36899948120117 231.468994140625,-39.72100067138672 231.63600158691406,-39.152000427246094 C231.8040008544922,-38.582000732421875 231.85899353027344,-38.03499984741211 231.9600067138672,-37.57699966430664 C232.14999389648438,-36.6510009765625 232.30599975585938,-35.92499923706055 232.47300720214844,-35.233001708984375 C232.8419952392578,-33.8489990234375 232.9980010986328,-32.553001403808594 233.49000549316406,-29.974000930786133 C233.49000549316406,-29.974000930786133 233.49000549316406,-28.534000396728516 233.49000549316406,-28.534000396728516 C233.49000549316406,-28.099000930786133 233.41099548339844,-27.70800018310547 233.3780059814453,-27.316999435424805 C233.31100463867188,-26.547000885009766 233.26600646972656,-25.820999145507812 233.2550048828125,-24.93899917602539 C233.24400329589844,-24.05699920654297 233.2550048828125,-23.041000366210938 233.156005859375,-21.6560001373291 C233.156005859375,-20.964000701904297 233.0760040283203,-20.183000564575195 233.02099609375,-19.299999237060547 C232.96499633789062,-18.417999267578125 232.96499633789062,-17.413999557495117 232.78599548339844,-16.274999618530273 C232.70799255371094,-14.845999717712402 232.61900329589844,-13.32699966430664 232.5399932861328,-11.809000015258789 C232.46200561523438,-10.289999961853027 232.19400024414062,-8.871999740600586 232.072998046875,-7.577000141143799 C231.98199462890625,-6.76200008392334 231.8820037841797,-5.86899995803833 231.72500610351562,-4.952000141143799 C231.72500610351562,-4.952000141143799 231.10000610351562,-2.1619999408721924 231.10000610351562,-2.1619999408721924 C231.10000610351562,-2.1619999408721924 230.47500610351562,0.6290000081062317 230.47500610351562,0.6290000081062317 C230.28500366210938,1.5329999923706055 230.00599670410156,2.371999979019165 229.8159942626953,3.1649999618530273 C229.57200622558594,4.28000020980835 229.33599853515625,5.263000011444092 229.1020050048828,6.301000118255615 C228.86700439453125,7.339000225067139 228.5989990234375,8.366000175476074 228.28700256347656,9.404999732971191 C227.74400329589844,11.401000022888184 227.06900024414062,13.359999656677246 226.26600646972656,15.265999794006348 C225.83099365234375,16.5049991607666 225.18899536132812,17.65999984741211 224.3679962158203,18.683000564575195 C224.1219940185547,18.983999252319336 223.7310028076172,19.64299964904785 223.38499450683594,20.16900062561035 C222.62600708007812,21.80900001525879 221.81100463867188,23.295000076293945 221.0749969482422,24.71299934387207 C220.4029998779297,26.07699966430664 219.65899658203125,27.40399932861328 218.84100341796875,28.687000274658203 C217.2779998779297,31.097999572753906 215.88299560546875,33.55400085449219 214.1739959716797,35.81999969482422 C213.48199462890625,36.87099838256836 212.81199645996094,37.909000396728516 212.14199829101562,38.93600082397461 C212.14199829101562,38.93600082397461 211.13800048828125,40.47700119018555 211.13800048828125,40.47700119018555 C211.13800048828125,40.47700119018555 210.02099609375,41.9630012512207 210.02099609375,41.9630012512207 C209.17300415039062,43.077999114990234 208.3350067138672,44.19499969482422 207.48800659179688,45.31100082397461 C207.48800659179688,45.31100082397461 206.2030029296875,46.99700164794922 206.2030029296875,46.99700164794922 C206.2030029296875,46.99700164794922 204.82899475097656,48.61600112915039 204.82899475097656,48.61600112915039 C203.23300170898438,50.459999084472656 201.47999572753906,52.51300048828125 200.0959930419922,54.07600021362305 C197.9409942626953,56.46500015258789 196.66799926757812,57.48099899291992 194.78199768066406,59.590999603271484 C194.71400451660156,59.724998474121094 194.63600158691406,59.87200164794922 194.60299682617188,59.96099853515625 C194.57200622558594,60.05799865722656 194.54800415039062,60.15800094604492 194.53599548339844,60.2599983215332 C190.8070068359375,63.72200012207031 188.9530029296875,65.5199966430664 187.46800231933594,66.96099853515625 C185.98300170898438,68.4010009765625 184.78900146484375,69.48300170898438 182.5,71.77200317382812 C182.5,71.77200317382812 181.8300018310547,72.38700103759766 181.8300018310547,72.38700103759766 C181.8300018310547,72.38700103759766 175.38800048828125,77.26599884033203 175.38800048828125,77.26599884033203 C173.7239990234375,78.6050033569336 171.8489990234375,79.88800048828125 168.1529998779297,82.52300262451172 C165.08299255371094,84.5009994506836 161.55499267578125,86.2979965209961 158.10499572753906,88.20800018310547 C157.468994140625,88.55400085449219 156.7760009765625,88.9000015258789 156.17300415039062,89.26799774169922 C153.48300170898438,90.84200286865234 151.1490020751953,92.05899810791016 149.0279998779297,93.1760025024414 C147.91200256347656,93.7229995727539 146.9510040283203,94.29299926757812 145.93499755859375,94.7509994506836 C145.93499755859375,94.7509994506836 142.88699340820312,96.15599822998047 142.88699340820312,96.15599822998047 C141.98300170898438,96.6259994506836 141.52499389648438,96.86000061035156 141.41400146484375,96.93800354003906 C140.2969970703125,97.67500305175781 138.4770050048828,98.65699768066406 136.61399841308594,99.69499969482422 C136.61399841308594,99.69499969482422 131.031005859375,102.4749984741211 131.031005859375,102.4749984741211 C130.41600036621094,102.78900146484375 129.16600036621094,103.35800170898438 128.25,103.76000213623047 C125.51499938964844,105.03299713134766 122.66799926757812,105.99199676513672 119.89900207519531,107.10900115966797 C117.12999725341797,108.2249984741211 114.3949966430664,109.34300231933594 111.64800262451172,110.14700317382812 C111.64800262451172,110.14700317382812 105.9990005493164,112.37999725341797 105.9990005493164,112.37999725341797 C104.69300079345703,112.79299926757812 103.44200134277344,113.21700286865234 102.2030029296875,113.58599853515625 C102.2030029296875,113.58599853515625 98.50700378417969,114.58999633789062 98.50700378417969,114.58999633789062 C96.0510025024414,115.27100372314453 93.61699676513672,115.99800109863281 91.01599884033203,116.9010009765625 C89.70999908447266,117.40399932861328 91.48500061035156,117.18099975585938 87.72200012207031,118.18499755859375 C87.72200012207031,118.18499755859375 77.91999816894531,120.21700286865234 77.91999816894531,120.21700286865234 C75.95500183105469,120.6520004272461 73.4540023803711,121.06600189208984 71.47799682617188,121.45800018310547 C71.47799682617188,121.45800018310547 62.54600143432617,123.69000244140625 62.54600143432617,123.69000244140625 C58.18000030517578,124.3489990234375 54.04899978637695,125.00599670410156 49.79600143432617,125.78900146484375 C44.70399856567383,126.41400146484375 41.02000045776367,127.06099700927734 37.513999938964844,127.6520004272461 C37.513999938964844,127.6520004272461 33.04800033569336,128.11099243164062 33.04800033569336,128.11099243164062 C31.674999237060547,128.1999969482422 30.368999481201172,128.29100036621094 29.051000595092773,128.41400146484375 C25.93600082397461,128.69200134277344 22.7549991607666,129.0709991455078 19.003000259399414,129.47300720214844 C11.756999969482422,129.79800415039062 2.993000030517578,130.18800354003906 -5.927999973297119,130.37899780273438 C-5.927999973297119,130.37899780273438 -12.090999603271484,130.37899780273438 -12.090999603271484,130.37899780273438 C-15.060999870300293,130.37899780273438 -14.670000076293945,130.19900512695312 -17.013999938964844,130.1320037841797 C-18.898000717163086,130.2989959716797 -20.79199981689453,130.2989959716797 -22.674999237060547,130.1320037841797 C-24.80699920654297,130.24400329589844 -26.63800048828125,130.4340057373047 -29.094999313354492,130.4340057373047 C-35.67100143432617,130.4340057373047 -40.895999908447266,130.58999633789062 -47.6619987487793,130.343994140625 C-51.86000061035156,130.18800354003906 -55.96799850463867,130.02000427246094 -60.21099853515625,129.77499389648438 C-61.249000549316406,129.63099670410156 -62.22100067138672,129.4510040283203 -63.63800048828125,129.28399658203125 C-66.89900207519531,128.8820037841797 -70.56099700927734,128.44500732421875 -74.71399688720703,128.0780029296875 C-79.41400146484375,127.66500091552734 -82.35099792480469,127.05000305175781 -86.77200317382812,126.50399780273438 C-90.02100372314453,126.0790023803711 -88.33499908447266,126.02200317382812 -90.85800170898438,125.60900115966797 C-90.85800170898438,125.60900115966797 -93.0459976196289,125.2979965209961 -93.0459976196289,125.2979965209961 C-94.87699890136719,125.10800170898438 -96.84200286865234,124.94000244140625 -99.06400299072266,124.68399810791016 C-104.85900115966797,123.45600128173828 -111.73600006103516,122.44999694824219 -117.7760009765625,121.177001953125 C-120.69400024414062,120.19100189208984 -123.67900085449219,119.4209976196289 -126.70800018310547,118.86699676513672 C-126.70800018310547,118.86699676513672 -131.78799438476562,117.7509994506836 -131.78799438476562,117.7509994506836 C-132.57000732421875,117.57099914550781 -133.39599609375,117.2699966430664 -134.1999969482422,117.03500366210938 C-134.1999969482422,117.03500366210938 -133.9320068359375,117.11299896240234 -133.9320068359375,117.11299896240234 C-134.9250030517578,116.84500122070312 -135.98599243164062,116.51100158691406 -136.8679962158203,116.29900360107422 C-142.4499969482422,114.88099670410156 -147.68699645996094,113.29499816894531 -153.1020050048828,111.41899871826172 C-158.02499389648438,109.6989974975586 -163.0050048828125,107.93599700927734 -167.19200134277344,106.52899932861328 C-170.3730010986328,105.46900177001953 -174.73899841308594,103.75 -178.71400451660156,101.9739990234375 C-180.85699462890625,101.05799865722656 -180.9459991455078,100.75700378417969 -182.5540008544922,99.98699951171875 C-185.56900024414062,98.625 -188.51600646972656,97.13800048828125 -191.48599243164062,95.58699798583984 C-191.072998046875,95.95600128173828 -190.6490020751953,96.29100036621094 -190.16900634765625,96.7040023803711 C-192.10000610351562,95.65299987792969 -193.6300048828125,94.69400024414062 -195.0590057373047,93.86799621582031 C-196.66700744628906,92.875 -198.18499755859375,92.00499725341797 -199.52499389648438,91.13300323486328 C-202.49400329589844,88.9000015258789 -204.4600067138672,87.17900085449219 -206.41299438476562,85.54900360107422 C-208.36700439453125,83.91999816894531 -210.27699279785156,82.19999694824219 -212.88900756835938,79.71099853515625 C-215.4239959716797,77.28900146484375 -217.69500732421875,74.60600280761719 -219.66600036621094,71.70700073242188 C-220.08999633789062,71.06900024414062 -220.78199768066406,70.24299621582031 -221.25100708007812,69.4729995727539 C-221.94400024414062,68.50199890136719 -222.66900634765625,67.5739974975586 -223.30599975585938,66.5250015258789 C-223.30599975585938,66.5250015258789 -224.343994140625,64.94000244140625 -224.343994140625,64.94000244140625 C-224.6790008544922,64.38099670410156 -225.0030059814453,63.823001861572266 -225.36000061035156,63.165000915527344 C-226.92100524902344,60.112998962402344 -228.18800354003906,56.92100143432617 -229.14500427246094,53.630001068115234 C-229.45700073242188,52.51300048828125 -229.69200134277344,51.56399917602539 -229.947998046875,50.69300079345703 C-230.2050018310547,49.821998596191406 -230.39500427246094,49.018001556396484 -230.5959930419922,48.249000549316406 C-230.5959930419922,48.694000244140625 -230.3509979248047,49.777000427246094 -230.16099548339844,50.672000885009766 C-229.9709930419922,51.56399917602539 -229.781005859375,52.266998291015625 -229.98199462890625,51.987998962402344 C-230.4429931640625,50.465999603271484 -230.81500244140625,48.91999816894531 -231.0989990234375,47.35499954223633 C-231.32000732421875,45.98099899291992 -231.44700622558594,44.59299850463867 -231.47799682617188,43.20100021362305 C-231.47799682617188,42.33100128173828 -231.47799682617188,41.63800048828125 -231.57899475097656,40.042999267578125 C-231.57899475097656,39.22600173950195 -231.64599609375,38.52299880981445 -231.65699768066406,37.89799880981445 C-231.66799926757812,37.27299880981445 -231.55599975585938,36.7140007019043 -231.51199340820312,36.176998138427734 C-231.39999389648438,35.12900161743164 -231.28799438476562,34.191001892089844 -231.24400329589844,33.04199981689453 C-231.12100219726562,31.033000946044922 -230.8979949951172,29.031999588012695 -230.57400512695312,27.04599952697754 C-229.2449951171875,23.695999145507812 -229.5469970703125,23.69499969482422 -226.84500122070312,15.979999542236328 C-226.1529998779297,14.137999534606934 -225.28199768066406,12.107000350952148 -224.5449981689453,10.39799976348877 C-223.98699951171875,8.968999862670898 -223.26100158691406,7.60699987411499 -222.61300659179688,6.25600004196167 C-222.61300659179688,6.25600004196167 -220.71600341796875,2.2699999809265137 -220.71600341796875,2.2699999809265137 C-219.37600708007812,-0.28600001335144043 -218.0800018310547,-2.687000036239624 -216.98699951171875,-4.886000156402588 C-216.19400024414062,-6.394000053405762 -215.11099243164062,-8.045999526977539 -214.1510009765625,-9.664999961853027 C-213.19000244140625,-11.284000396728516 -212.30799865722656,-12.847000122070312 -211.60499572753906,-13.95199966430664 C-210.90199279785156,-15.057999610900879 -209.09300231933594,-17.636999130249023 -207.57400512695312,-19.53499984741211 C-206.52499389648438,-20.952999114990234 -205.26300048828125,-22.270000457763672 -204.06900024414062,-23.700000762939453 C-202.87399291992188,-25.128999710083008 -201.61199951171875,-26.601999282836914 -200.3509979248047,-28.166000366210938 C-197.6269989013672,-31.236000061035156 -196.0970001220703,-32.50899887084961 -193.90899658203125,-34.79800033569336 C-193.22799682617188,-35.60100173950195 -192.79200744628906,-36.22700119018555 -192.10000610351562,-36.874000549316406 C-188.8730010986328,-40.222999572753906 -188.01400756835938,-41.1609992980957 -183.77099609375,-45.01300048828125 C-183.32400512695312,-45.40399932861328 -182.56500244140625,-46.02899932861328 -182.45399475097656,-46.130001068115234 C-181.11399841308594,-47.513999938964844 -178.33399963378906,-49.83700180053711 -176.87100219726562,-51.28799819946289 C-176.4810028076172,-51.65700149536133 -176.11199951171875,-52.025001525878906 -175.7550048828125,-52.404998779296875 C-175.7550048828125,-52.404998779296875 -174.5489959716797,-53.39799880981445 -174.5489959716797,-53.39799880981445 C-174.5489959716797,-53.39799880981445 -172.08200073242188,-55.374000549316406 -172.08200073242188,-55.374000549316406 C-170.40699768066406,-56.680999755859375 -168.73199462890625,-57.97600173950195 -166.8679962158203,-59.30500030517578 C-165.61700439453125,-60.2760009765625 -164.18800354003906,-61.124000549316406 -162.8040008544922,-62.07400131225586 C-159.96499633789062,-64.36599731445312 -156.98899841308594,-66.48300170898438 -153.8939971923828,-68.41500091552734 C-153.2469940185547,-68.78399658203125 -152.11900329589844,-69.53199768066406 -151.2259979248047,-70.0790023803711 C-148.9929962158203,-71.46299743652344 -146.8489990234375,-72.82599639892578 -145.0290069580078,-73.89700317382812 C-144.125,-74.43299865722656 -143.30999755859375,-74.91300201416016 -142.6179962158203,-75.25900268554688 C-142.072998046875,-75.53299713134766 -141.50599670410156,-75.75800323486328 -140.92100524902344,-75.92900085449219 C-140.92100524902344,-75.92900085449219 -133.17300415039062,-79.68099975585938 -133.17300415039062,-79.68099975585938 C-132.1230010986328,-80.27200317382812 -131.01800537109375,-80.86399841308594 -130.29200744628906,-81.30000305175781 C-127.0770034790039,-83.11900329589844 -123.28099822998047,-84.99500274658203 -120.99199676513672,-86.39099884033203 C-120.177001953125,-86.87100219726562 -119.41799926757812,-87.27300262451172 -117.98899841308594,-87.98799896240234 C-115.61000061035156,-89.23799896240234 -113.22100067138672,-90.22100067138672 -110.94400024414062,-91.33699798583984 C-110.94400024414062,-91.33699798583984 -109.31300354003906,-91.94000244140625 -109.31300354003906,-91.94000244140625 C-106.37799835205078,-92.87799835205078 -103.52799987792969,-94.06600189208984 -100.79499816894531,-95.48999786376953 C-96.58599853515625,-97.05400085449219 -92.75599670410156,-98.73899841308594 -88.34600067138672,-100.25800323486328 C-87.2300033569336,-100.61499786376953 -85.6780014038086,-101.26300048828125 -84.3270034790039,-101.7760009765625 C-84.3270034790039,-101.7760009765625 -84.59500122070312,-101.63099670410156 -84.59500122070312,-101.63099670410156z M-198.24099731445312,-31.29199981689453 C-197.9949951171875,-31.582000732421875 -197.2689971923828,-32.33000183105469 -197.0570068359375,-32.52000045776367 C-196.84500122070312,-32.709999084472656 -196.91200256347656,-32.52000045776367 -197.14700317382812,-32.27399826049805 C-197.14700317382812,-32.27399826049805 -199.81500244140625,-29.159000396728516 -199.81500244140625,-29.159000396728516 C-200.96499633789062,-28.209999084472656 -199.30099487304688,-30.052000045776367 -198.24099731445312,-31.2810001373291 C-198.24099731445312,-31.2810001373291 -198.24099731445312,-31.29199981689453 -198.24099731445312,-31.29199981689453z M236.06900024414062,-12.310999870300293 C236.06900024414062,-12.310999870300293 236.16900634765625,-12.579000473022461 236.16900634765625,-12.579000473022461 C236.16900634765625,-12.244000434875488 236.09100341796875,-11.852999687194824 236.06900024414062,-11.597000122070312 C236.06300354003906,-11.522000312805176 236.0399932861328,-11.449000358581543 236.0019989013672,-11.383999824523926 C236.0019989013672,-11.383999824523926 236.06900024414062,-12.310999870300293 236.06900024414062,-12.310999870300293z M-220.88299560546875,1.9019999504089355 C-220.88299560546875,1.9019999504089355 -220.7270050048828,1.7230000495910645 -220.7270050048828,1.7230000495910645 C-220.8489990234375,1.9910000562667847 -221.00599670410156,2.2939999103546143 -221.1060028076172,2.49399995803833 C-221.13299560546875,2.5490000247955322 -221.1719970703125,2.5980000495910645 -221.21800231933594,2.6389999389648438 C-221.21800231933594,2.6389999389648438 -220.88299560546875,1.9019999504089355 -220.88299560546875,1.9019999504089355z"></path>
        </g>
        <g opacity="1" transform="matrix(1,0,0,1,237.41000366210938,136.98399353027344)">
          <path stroke-linecap="butt" stroke-linejoin="miter" fill-opacity="0" stroke-miterlimit="4"
            stroke="rgb(255,210,95)" stroke-opacity="1" stroke-width="2"
            d=" M-84.59500122070312,-101.63099670410156 C-83.8239974975586,-101.97699737548828 -83.03199768066406,-102.25599670410156 -82.25,-102.56900024414062 C-82.25,-102.56900024414062 -82.56300354003906,-102.44599914550781 -82.56300354003906,-102.44599914550781 C-81.78299713134766,-102.80999755859375 -80.96199798583984,-103.08000183105469 -80.11799621582031,-103.25 C-80.11799621582031,-103.25 -80.40799713134766,-103.1719970703125 -80.40799713134766,-103.1719970703125 C-76.48899841308594,-104.53399658203125 -75.16000366210938,-104.60099792480469 -71.74400329589844,-105.7509994506836 C-70.17400360107422,-106.4260025024414 -68.56800079345703,-107.01100158691406 -66.93199920654297,-107.50399780273438 C-64.26399993896484,-108.10700225830078 -61.91899871826172,-108.8550033569336 -59.439998626708984,-109.53600311279297 C-59.439998626708984,-109.53600311279297 -59.696998596191406,-109.4469985961914 -59.696998596191406,-109.4469985961914 C-56.54600143432617,-110.6510009765625 -53.32899856567383,-111.6760025024414 -50.0620002746582,-112.51699829101562 C-49.43000030517578,-112.7239990234375 -48.81100082397461,-112.97100067138672 -48.20899963378906,-113.25399780273438 C-46.645999908447266,-113.5999984741211 -45.21699905395508,-113.9010009765625 -43.93299865722656,-114.21399688720703 C-40.71699905395508,-115.00700378417969 -38.09299850463867,-115.4530029296875 -34.71099853515625,-116.29100036621094 C-32.29899978637695,-116.89299774169922 -31.540000915527344,-116.79299926757812 -28.54800033569336,-117.54100036621094 C-28.54800033569336,-117.54100036621094 -21.44700050354004,-119.03700256347656 -21.44700050354004,-119.03700256347656 C-19.604999542236328,-119.40599822998047 -17.996999740600586,-119.66200256347656 -16.981000900268555,-119.75199890136719 C-16.981000900268555,-119.75199890136719 -17.260000228881836,-119.75199890136719 -17.260000228881836,-119.75199890136719 C-14.949000358581543,-120.12000274658203 -12.54800033569336,-120.56700134277344 -10.12600040435791,-121.0250015258789 C-8.909000396728516,-121.24800109863281 -7.703000068664551,-121.51599884033203 -6.486000061035156,-121.69499969482422 C-6.486000061035156,-121.69499969482422 -2.86899995803833,-122.22000122070312 -2.86899995803833,-122.22000122070312 C2.513000011444092,-122.97799682617188 6.979000091552734,-123.77100372314453 11.467000007629395,-124.56400299072266 C15.074000358581543,-125.11100006103516 17.305999755859375,-125.0999984741211 21.514999389648438,-125.68099975585938 C25.322999954223633,-126.28399658203125 28.527999877929688,-126.90899658203125 33.494998931884766,-127.45600128173828 C36.74399948120117,-127.7020034790039 39.30099868774414,-127.85800170898438 42.08100128173828,-128.01400756835938 C45.095001220703125,-128.2259979248047 47.57500076293945,-128.36000061035156 50.25299835205078,-128.51600646972656 C51.91400146484375,-128.5570068359375 53.56800079345703,-128.73699951171875 55.20000076293945,-129.052001953125 C57.435001373291016,-129.50100708007812 59.70800018310547,-129.73800659179688 61.987998962402344,-129.7570037841797 C63.53900146484375,-129.8459930419922 65.09100341796875,-129.8800048828125 66.62100219726562,-129.89100646972656 C69.06600189208984,-130.13600158691406 70.80799865722656,-130.3699951171875 73.2300033569336,-130.5260009765625 C76.13300323486328,-130.71600341796875 79.92900085449219,-130.88299560546875 82.7760009765625,-130.9510040283203 C86.93000030517578,-131.0290069580078 90.4469985961914,-131.26400756835938 94.26499938964844,-131.36500549316406 C94.26499938964844,-131.36500549316406 99.84700012207031,-131.4969940185547 99.84700012207031,-131.4969940185547 C101.37699890136719,-131.39700317382812 103.64299774169922,-131.3070068359375 104.2239990234375,-131.18499755859375 C105.40799713134766,-130.91700744628906 109.32599639892578,-130.88299560546875 112.3740005493164,-130.77200317382812 C114.71900177001953,-130.67100524902344 116.73999786376953,-130.77200317382812 119.00599670410156,-130.85000610351562 C119.58599853515625,-130.85000610351562 121.3949966430664,-130.71600341796875 122.75700378417969,-130.6490020751953 C122.75700378417969,-130.6490020751953 127.40299987792969,-130.6490020751953 127.40299987792969,-130.6490020751953 C127.40299987792969,-130.6490020751953 133.26300048828125,-130.34800720214844 133.26300048828125,-130.34800720214844 C133.26300048828125,-130.34800720214844 143.59100341796875,-130.51600646972656 143.59100341796875,-130.51600646972656 C143.59100341796875,-130.51600646972656 147.7550048828125,-130.60400390625 147.7550048828125,-130.60400390625 C149.20700073242188,-130.60400390625 150.85899353027344,-130.51499938964844 153.0709991455078,-130.34800720214844 C154.55499267578125,-130.2469940185547 157,-130.2239990234375 158.9199981689453,-130.17999267578125 C158.9199981689453,-130.17999267578125 164.56900024414062,-130.07899475097656 164.56900024414062,-130.07899475097656 C164.56900024414062,-130.07899475097656 174.68499755859375,-129.7570037841797 174.68499755859375,-129.7570037841797 C178.79299926757812,-129.36599731445312 178.79299926757812,-129.38699340820312 182.14300537109375,-129.10800170898438 C182.14300537109375,-129.10800170898438 194.10000610351562,-128.1479949951172 194.10000610351562,-128.1479949951172 C197.24200439453125,-128.23800659179688 200.38699340820312,-128.11099243164062 203.51199340820312,-127.76799774169922 C204.43899536132812,-127.69000244140625 205.3990020751953,-127.66799926757812 206.31399536132812,-127.61199951171875 C206.31399536132812,-127.61199951171875 211.4499969482422,-128.29299926757812 211.4499969482422,-128.29299926757812 C207.46400451660156,-128.92999267578125 205.8679962158203,-129.41000366210938 201.2570037841797,-130.11300659179688 C197.10299682617188,-130.71600341796875 193.05099487304688,-131.22999572753906 186.47500610351562,-131.76600646972656 C186.47500610351562,-131.76600646972656 182.51100158691406,-132.1230010986328 182.51100158691406,-132.1230010986328 C182.51100158691406,-132.1230010986328 179.45199584960938,-132.61500549316406 179.45199584960938,-132.61500549316406 C179.45199584960938,-132.61500549316406 171,-133.0050048828125 171,-133.0050048828125 C163.56500244140625,-133.22799682617188 155.7050018310547,-133.52999877929688 149.50799560546875,-133.52999877929688 C147.197998046875,-133.52999877929688 146.8730010986328,-133.52999877929688 142.5970001220703,-133.86500549316406 C139.2480010986328,-134.08799743652344 137.48399353027344,-134.32200622558594 135.5970001220703,-134.58999633789062 C135.5970001220703,-134.58999633789062 126.4749984741211,-134.7239990234375 126.4749984741211,-134.7239990234375 C124.59200286865234,-134.89500427246094 122.43699645996094,-135.0260009765625 120.01100158691406,-135.11500549316406 C117.5770034790039,-135.20399475097656 114.89700317382812,-135.11500549316406 111.94999694824219,-135.04800415039062 C105.74199676513672,-134.89100646972656 100.61799621582031,-134.97000122070312 97.03399658203125,-135.23800659179688 C97.03399658203125,-135.36099243164062 97.78299713134766,-135.5279998779297 96.9000015258789,-135.56100463867188 C93.41600036621094,-135.6959991455078 91.7300033569336,-136.0760040283203 86.99700164794922,-135.96400451660156 C82.63099670410156,-135.70799255371094 77.9749984741211,-135.49400329589844 74.86000061035156,-135.16000366210938 C72.30400085449219,-134.89100646972656 69.37899780273438,-134.7239990234375 66.00700378417969,-134.57899475097656 C64.04900360107422,-134.52099609375 62.09600067138672,-134.35299682617188 60.15700149536133,-134.07699584960938 C56.40599822998047,-133.54100036621094 51.91699981689453,-133.10499572753906 46.4010009765625,-132.8260040283203 C44.45500183105469,-132.74600219726562 42.51300048828125,-132.56700134277344 40.584999084472656,-132.2899932861328 C40.584999084472656,-132.2899932861328 41.56700134277344,-132.2899932861328 41.56700134277344,-132.2899932861328 C41.56700134277344,-132.2899932861328 40.8650016784668,-132.2899932861328 40.8650016784668,-132.2899932861328 C38.63100051879883,-132.11199951171875 36.55400085449219,-131.68699645996094 34.08700180053711,-131.58700561523438 C33.540000915527344,-131.58700561523438 32.22200012207031,-131.41900634765625 31.240999221801758,-131.3070068359375 C31.240999221801758,-131.3070068359375 16.034000396728516,-129.6219940185547 16.034000396728516,-129.6219940185547 C15.777000427246094,-129.6219940185547 15.005999565124512,-129.49899291992188 14.515000343322754,-129.3979949951172 C10.640999794006348,-128.58299255371094 6.598999977111816,-127.87999725341797 1.1169999837875366,-127.16500091552734 C-0.7919999957084656,-126.91999816894531 -2.8350000381469727,-126.61900329589844 -4.945000171661377,-126.31700134277344 C-5.994999885559082,-126.14900207519531 -7.066999912261963,-126.01499938964844 -8.126999855041504,-125.82599639892578 C-8.126999855041504,-125.82599639892578 -11.309000015258789,-125.2229995727539 -11.309000015258789,-125.2229995727539 C-11.309000015258789,-125.2229995727539 -13.753999710083008,-124.54199981689453 -13.753999710083008,-124.54199981689453 C-13.753999710083008,-124.54199981689453 -12.637999534606934,-124.70899963378906 -12.637999534606934,-124.70899963378906 C-12.637999534606934,-124.70899963378906 -13.118000030517578,-124.63099670410156 -13.118000030517578,-124.63099670410156 C-13.118000030517578,-124.63099670410156 -13.46399974822998,-124.63099670410156 -13.46399974822998,-124.63099670410156 C-16.232999801635742,-124.08399963378906 -18.767000198364258,-123.51499938964844 -21.826000213623047,-122.97799682617188 C-22.94300079345703,-122.80000305175781 -24.863000869750977,-122.40899658203125 -25.868000030517578,-122.17500305175781 C-25.868000030517578,-122.17500305175781 -29.149999618530273,-121.427001953125 -29.149999618530273,-121.427001953125 C-30.267000198364258,-121.14700317382812 -31.461999893188477,-120.86900329589844 -32.790000915527344,-120.56700134277344 C-35.68199920654297,-119.93099975585938 -37.05500030517578,-119.3270034790039 -40.4379997253418,-118.6240005493164 C-42.71099853515625,-118.43900299072266 -44.957000732421875,-118.00900268554688 -47.137001037597656,-117.33999633789062 C-48.979000091552734,-116.88300323486328 -50.00600051879883,-116.6259994506836 -50.810001373291016,-116.47000122070312 C-51.61399841308594,-116.31300354003906 -52.172000885009766,-116.2239990234375 -53.042999267578125,-116 C-53.042999267578125,-116 -66.02799987792969,-111.99199676513672 -66.02799987792969,-111.99199676513672 C-67.55699920654297,-111.55699920654297 -69.45500183105469,-110.8759994506836 -71.12999725341797,-110.38500213623047 C-71.12999725341797,-110.38500213623047 -80.33000183105469,-107.48100280761719 -80.33000183105469,-107.48100280761719 C-82.48500061035156,-106.81199645996094 -84.5719985961914,-106.17500305175781 -85.4990005493164,-106.00800323486328 C-88.43499755859375,-105.16200256347656 -91.322998046875,-104.16000366210938 -94.1520004272461,-103.00399780273438 C-96.38500213623047,-102.13400268554688 -98.0479965209961,-101.5530014038086 -99.73400115966797,-100.98300170898438 C-102.24299621582031,-100.1760025024414 -104.70700073242188,-99.23300170898438 -107.11399841308594,-98.15899658203125 C-107.11399841308594,-98.15899658203125 -116.35800170898438,-94.13999938964844 -116.35800170898438,-94.13999938964844 C-119.42900085449219,-92.76599884033203 -122.41000366210938,-91.2030029296875 -125.4800033569336,-89.77400207519531 C-127.24400329589844,-88.93599700927734 -129.2760009765625,-87.86499786376953 -131.15199279785156,-86.91500091552734 C-132.68099975585938,-86.13400268554688 -134.0989990234375,-85.27400207519531 -135.3719940185547,-84.60399627685547 C-138.08999633789062,-83.49500274658203 -140.7050018310547,-82.1510009765625 -143.18699645996094,-80.58499908447266 C-144.3040008544922,-79.90399932861328 -145.4199981689453,-79.25599670410156 -146.60400390625,-78.4749984741211 C-146.60400390625,-78.4749984741211 -148.41200256347656,-77.35800170898438 -148.41200256347656,-77.35800170898438 C-149.7969970703125,-76.55500030517578 -150.1540069580078,-76.51000213623047 -152.52099609375,-75.01399993896484 C-153.00100708007812,-74.69000244140625 -153.9949951171875,-74.05400085449219 -154.48599243164062,-73.69599914550781 C-157.2550048828125,-71.7760009765625 -160.66000366210938,-69.2300033569336 -164.95899963378906,-66.33799743652344 C-164.95899963378906,-66.33799743652344 -168.55299377441406,-63.87200164794922 -168.55299377441406,-63.87200164794922 C-168.55299377441406,-63.87200164794922 -171.86900329589844,-61.15800094604492 -171.86900329589844,-61.15800094604492 C-174.1020050048828,-59.404998779296875 -176.21299743652344,-57.67499923706055 -178.1439971923828,-56.03300094604492 C-181.0800018310547,-53.34199905395508 -184.47500610351562,-50.55099868774414 -187.6009979248047,-47.7599983215332 C-189.6219940185547,-46.21900177001953 -193.718994140625,-42.176998138427734 -196.3209991455078,-39.944000244140625 C-197.71600341796875,-38.24700164794922 -199.14500427246094,-36.595001220703125 -200.68600463867188,-34.84199905395508 C-201.4669952392578,-33.99399948120117 -202.25999450683594,-33.12300109863281 -203.0970001220703,-32.24100112915039 C-203.93499755859375,-31.358999252319336 -204.7050018310547,-30.39900016784668 -205.58700561523438,-29.448999404907227 C-206.86500549316406,-28.09600067138672 -208.06199645996094,-26.66900062561035 -209.17100524902344,-25.17300033569336 C-209.4499969482422,-24.770999908447266 -209.8070068359375,-24.31399917602539 -210.18699645996094,-23.82200050354004 C-210.56700134277344,-23.33099937438965 -210.9459991455078,-22.795000076293945 -211.30299377441406,-22.281999588012695 C-212.06300354003906,-21.253999710083008 -212.77699279785156,-20.29400062561035 -213.1230010986328,-19.70199966430664 C-213.7259979248047,-18.586000442504883 -214.6750030517578,-17.224000930786133 -215.75799560546875,-15.626999855041504 C-215.75799560546875,-15.626999855041504 -219.04100036621094,-10.335000038146973 -219.04100036621094,-10.335000038146973 C-219.3979949951172,-9.833000183105469 -219.81100463867188,-9.218000411987305 -220.04600524902344,-8.916999816894531 C-220.4250030517578,-8.414999961853027 -220.6479949951172,-8.236000061035156 -221.01699829101562,-7.677999973297119 C-221.82000732421875,-6.460999965667725 -222.5240020751953,-5.343999862670898 -223.25,-4.059999942779541 C-223.25,-4.059999942779541 -224.36599731445312,-1.972000002861023 -224.36599731445312,-1.972000002861023 C-224.8280029296875,-1.1480000019073486 -225.24099731445312,-0.2980000078678131 -225.6060028076172,0.5730000138282776 C-225.6060028076172,0.5730000138282776 -226.84500122070312,3.4549999237060547 -226.84500122070312,3.4549999237060547 C-228.50599670410156,6.671000003814697 -229.9969940185547,9.972000122070312 -231.31100463867188,13.345999717712402 C-232.50599670410156,16.920000076293945 -233.7220001220703,20.29199981689453 -234.50399780273438,23.461999893188477 C-234.55999755859375,23.663000106811523 -234.7270050048828,24.577999114990234 -234.8280029296875,25.125999450683594 C-235.09500122070312,26.37700080871582 -235.28500366210938,27.760000228881836 -235.54200744628906,29.17799949645996 C-235.7209930419922,30.160999298095703 -235.8769989013672,30.98699951171875 -236.06700134277344,32.013999938964844 C-236.81100463867188,38.89400100708008 -236.3419952392578,45.85100173950195 -234.6820068359375,52.569000244140625 C-232.9080047607422,59.03200149536133 -230.07899475097656,65.15899658203125 -226.3090057373047,70.70099639892578 C-225.69500732421875,71.53900146484375 -225.10299682617188,72.43099975585938 -224.4669952392578,73.24700164794922 C-223.8300018310547,74.06099700927734 -223.2270050048828,74.83300018310547 -222.7030029296875,75.47899627685547 C-221.9550018310547,76.45099639892578 -221.34100341796875,77.16600036621094 -221.08399963378906,77.52300262451172 C-219.38499450683594,79.78900146484375 -217.5189971923828,81.9229965209961 -215.5019989013672,83.90899658203125 C-213.1300048828125,86.21499633789062 -210.61599731445312,88.37000274658203 -207.9759979248047,90.36199951171875 C-206.91600036621094,91.19999694824219 -205.6540069580078,92.10399627685547 -204.52699279785156,92.9530029296875 C-203.3000030517578,93.9229965209961 -201.9759979248047,94.76000213623047 -200.57400512695312,95.4540023803711 C-200.57400512695312,95.4540023803711 -199.45799255371094,95.96700286865234 -199.45799255371094,95.96700286865234 C-197.58200073242188,97.19499969482422 -196.65499877929688,97.7979965209961 -195.69500732421875,98.33499908447266 C-194.73500061035156,98.87000274658203 -193.82000732421875,99.45099639892578 -191.85499572753906,100.45600128173828 C-188.7729949951172,102.11900329589844 -185.4459991455078,103.70500183105469 -182.07400512695312,105.26799774169922 C-178.02099609375,107.28900146484375 -174.73899841308594,108.99800109863281 -169.9600067138672,110.93900299072266 C-160.13499450683594,114.84700012207031 -151.3820037841797,118.00700378417969 -142.17100524902344,120.7979965209961 C-139.05499267578125,121.8479995727539 -135.88800048828125,122.73799896240234 -132.68099975585938,123.46600341796875 C-130.593994140625,123.96800231933594 -128.48300170898438,124.48300170898438 -126.42900085449219,124.91899871826172 C-122.5770034790039,125.75599670410156 -118.78099822998047,126.47000122070312 -114.90699768066406,127.1510009765625 C-112.95500183105469,127.447998046875 -111.0260009765625,127.87999725341797 -109.13500213623047,128.44500732421875 C-108.95600128173828,128.5229949951172 -108.36399841308594,128.6699981689453 -107.77300262451172,128.81500244140625 C-104.4229965209961,129.37399291992188 -100.95099639892578,129.92999267578125 -97.7239990234375,130.35400390625 C-93.88400268554688,130.5659942626953 -89.64099884033203,130.91400146484375 -83.20999908447266,131.53900146484375 C-83.20999908447266,131.53900146484375 -83.55599975585938,131.53900146484375 -83.55599975585938,131.53900146484375 C-79.88300323486328,131.75100708007812 -75.80799865722656,132.29800415039062 -70.22599792480469,132.86700439453125 C-70.22599792480469,132.86700439453125 -75.40599822998047,132.63299560546875 -75.40599822998047,132.63299560546875 C-72.41400146484375,133.08099365234375 -69.46600341796875,133.5050048828125 -66.4739990234375,133.906005859375 C-66.4739990234375,133.906005859375 -61.125999450683594,134.10699462890625 -61.125999450683594,134.10699462890625 C-55.979000091552734,134.60899353027344 -51.75899887084961,135 -48.08599853515625,135.4010009765625 C-44.01499938964844,135.9320068359375 -39.90299987792969,136.0760040283203 -35.80500030517578,135.8260040283203 C-35.80500030517578,135.8260040283203 -34.09600067138672,135.8260040283203 -34.09600067138672,135.8260040283203 C-31.75200080871582,135.927001953125 -29.631000518798828,135.96099853515625 -27.46500015258789,136.01600646972656 C-27.46500015258789,136.01600646972656 -24.4950008392334,136.01600646972656 -24.4950008392334,136.01600646972656 C-20.464000701904297,135.8489990234375 -14.982000350952148,135.78199768066406 -10.85099983215332,135.5030059814453 C-8.998000144958496,135.38099670410156 -6.09499979019165,135.29100036621094 -3.617000102996826,135.16799926757812 C-0.7580000162124634,135.0330047607422 2.1570000648498535,134.8990020751953 4.947999954223633,134.73199462890625 C5.185999870300293,134.5850067138672 5.458000183105469,134.5 5.739999771118164,134.48599243164062 C6.855999946594238,134.3520050048828 8.206999778747559,134.16400146484375 9.71399974822998,134.05099487304688 C10.845000267028809,133.91799926757812 11.98900032043457,133.91799926757812 13.119000434875488,134.05099487304688 C15.666000366210938,134.15899658203125 18.216999053955078,134.04800415039062 20.7450008392334,133.71600341796875 C23.503000259399414,133.4600067138672 26.249000549316406,133.1580047607422 29.242000579833984,132.91299438476562 C31.378000259399414,132.77999877929688 33.500999450683594,132.48899841308594 35.59400177001953,132.04200744628906 C37.57699966430664,131.66600036621094 39.58399963378906,131.42999267578125 41.60100173950195,131.33900451660156 C43.755001068115234,130.7469940185547 48.16600036621094,130.2209930419922 52.832000732421875,129.28399658203125 C55.57899856567383,128.79299926757812 58.481998443603516,128.3350067138672 61.29499816894531,127.87799835205078 C63.32699966430664,127.57499694824219 65.19200134277344,127.1510009765625 66.98999786376953,126.76000213623047 C68.78700256347656,126.36900329589844 70.52999877929688,125.94400024414062 72.29299926757812,125.4749984741211 C74.05699920654297,125.00599670410156 76.13300323486328,124.50599670410156 78.05400085449219,123.96900177001953 C79.9739990234375,123.43299865722656 81.88300323486328,122.85199737548828 83.78199768066406,122.36100006103516 C88.14700317382812,121.36799621582031 91.21700286865234,120.75399780273438 94.45500183105469,119.77100372314453 C94.45500183105469,119.77100372314453 100.77400207519531,117.91899871826172 100.77400207519531,117.91899871826172 C101.88999938964844,117.6050033569336 102.8949966430664,117.3030014038086 103.91100311279297,116.95800018310547 C103.91100311279297,116.95800018310547 106.83599853515625,115.90799713134766 106.83599853515625,115.90799713134766 C109.76200103759766,114.79199981689453 112.6760025024414,113.80799865722656 115.5780029296875,112.8030014038086 C115.5780029296875,112.8030014038086 124.16400146484375,109.4540023803711 124.16400146484375,109.4540023803711 C125.39199829101562,108.95099639892578 126.62000274658203,108.51699829101562 127.66999816894531,108.08200073242188 C128.718994140625,107.64600372314453 129.63499450683594,107.28900146484375 130.2830047607422,107.07599639892578 C132.64100646972656,106.22599792480469 134.9510040283203,105.2509994506836 137.2050018310547,104.1510009765625 C139.43699645996094,103.03500366210938 141.61599731445312,101.91799926757812 143.71400451660156,100.8010025024414 C145.15499877929688,100.02999877929688 146.572998046875,99.26100158691406 147.68800354003906,98.56900024414062 C148.80499267578125,97.87699890136719 149.21800231933594,97.4520034790039 152.04200744628906,95.95700073242188 C154.6439971923828,94.63800048828125 157.83700561523438,93.16600036621094 161.031005859375,91.29000091552734 C161.031005859375,91.29000091552734 167.29400634765625,87.05699920654297 167.29400634765625,87.05699920654297 C169.38099670410156,85.52799987792969 171.61500549316406,83.96499633789062 174.1490020751953,82.33599853515625 C175.26499938964844,81.56400299072266 176.22500610351562,80.75900268554688 177.218994140625,79.96700286865234 C177.218994140625,79.96700286865234 180.17799377441406,77.73400115966797 180.17799377441406,77.73400115966797 C180.17799377441406,77.73400115966797 183.0919952392578,75.50199890136719 183.0919952392578,75.50199890136719 C184.04100036621094,74.75399780273438 184.95599365234375,73.97200012207031 185.88299560546875,73.21399688720703 C188.25,71.38200378417969 190.4669952392578,69.36599731445312 192.51499938964844,67.18399810791016 C192.83900451660156,66.83899688720703 194.03399658203125,65.66600036621094 194.63600158691406,65.11799621582031 C195.6739959716797,64.14700317382812 196.74600219726562,63.209999084472656 197.75100708007812,62.172000885009766 C197.75100708007812,62.172000885009766 200.73199462890625,58.96500015258789 200.73199462890625,58.96500015258789 C201.61500549316406,58.005001068115234 202.60800170898438,56.979000091552734 203.5229949951172,56.029998779296875 C204.63999938964844,54.73500061035156 205.88999938964844,53.39500045776367 206.8730010986328,52.244998931884766 C208.0780029296875,50.75 209.1060028076172,49.47600173950195 210.04299926757812,48.04800033569336 C212.15899658203125,45.51599884033203 214.13999938964844,42.87799835205078 215.98300170898438,40.141998291015625 C215.98300170898438,40.141998291015625 218.3719940185547,36.14500045776367 218.3719940185547,36.14500045776367 C219.09800720214844,34.861000061035156 219.7570037841797,33.55500030517578 220.60499572753906,32.14799880981445 C222.71499633789062,28.55299949645996 222.83799743652344,27.68199920654297 224.61399841308594,24.009000778198242 C225.3979949951172,22.788999557495117 226.10699462890625,21.520000457763672 226.73500061035156,20.21299934387207 C227.4720001220703,18.715999603271484 228.33099365234375,17.007999420166016 229.2239990234375,14.96500015258789 C230.17300415039062,12.520000457763672 230.9550018310547,10.38700008392334 231.625,8.333999633789062 C232.2949981689453,6.2789998054504395 232.74200439453125,4.248000144958496 233.39999389648438,2.0810000896453857 C233.81300354003906,0.7630000114440918 234.17100524902344,-0.24199999868869781 234.51699829101562,-1.6490000486373901 C235.21800231933594,-4.442999839782715 235.7729949951172,-7.270999908447266 236.17999267578125,-10.123000144958496 C236.4149932861328,-11.552000045776367 236.47000122070312,-12.991999626159668 236.60400390625,-14.420999526977539 C236.7550048828125,-15.842000007629395 236.81100463867188,-17.270000457763672 236.77200317382812,-18.697999954223633 C236.77200317382812,-18.697999954223633 236.77200317382812,-22.73900032043457 236.77200317382812,-22.73900032043457 C236.77200317382812,-24.167999267578125 236.61700439453125,-25.652999877929688 236.53700256347656,-27.204999923706055 C236.49000549316406,-28.631000518798828 236.3470001220703,-30.052000045776367 236.11399841308594,-31.458999633789062 C235.96099853515625,-32.88800048828125 235.73300170898438,-34.30799865722656 235.4320068359375,-35.7130012512207 C235.11900329589844,-37.108001708984375 234.8179931640625,-38.481998443603516 234.51699829101562,-39.79899978637695 C234.21499633789062,-41.117000579833984 233.781005859375,-42.4119987487793 233.31100463867188,-43.573001861572266 C232.02000427246094,-46.5099983215332 230.38600158691406,-49.28300094604492 228.4429931640625,-51.834999084472656 C226.93299865722656,-53.94300079345703 225.27200317382812,-55.93899917602539 223.47500610351562,-57.80799865722656 C222.63699340820312,-58.73500061035156 221.6999969482422,-59.54999923706055 220.76199340820312,-60.44300079345703 C219.8249969482422,-61.33700180053711 218.7740020751953,-62.152000427246094 217.62399291992188,-62.96699905395508 C217.07699584960938,-63.356998443603516 216.22900390625,-64.13899993896484 215.39100646972656,-64.70800018310547 C210.67599487304688,-68.2249984741211 205.50900268554688,-71.08999633789062 200.02999877929688,-73.22699737548828 C200.02999877929688,-73.22699737548828 192.35800170898438,-76.20800018310547 192.35800170898438,-76.20800018310547 C189.91299438476562,-77.25800323486328 187.4239959716797,-78.1729965209961 185.4029998779297,-78.95500183105469 C185.4029998779297,-78.95500183105469 181.19400024414062,-80.6520004272461 181.19400024414062,-80.6520004272461 C180.47900390625,-80.93099975585938 179.41799926757812,-81.2770004272461 178.5030059814453,-81.60099792480469 C175.15499877929688,-82.71800231933594 171.8040008544922,-83.63300323486328 168.35400390625,-84.43699645996094 C168.35400390625,-84.43699645996094 163.24200439453125,-85.55400085449219 163.24200439453125,-85.55400085449219 C163.24200439453125,-85.55400085449219 157.60299682617188,-87.06099700927734 157.60299682617188,-87.06099700927734 C157.60299682617188,-87.06099700927734 154.4429931640625,-87.21700286865234 154.4429931640625,-87.21700286865234 C156.60899353027344,-86.5250015258789 153.76199340820312,-86.90399932861328 152.5,-86.97200012207031 C154.61000061035156,-86.33499908447266 157.03399658203125,-85.70999908447266 160.0919952392578,-84.9280014038086 C160.0919952392578,-84.9280014038086 162.3249969482422,-84.40399932861328 162.3249969482422,-84.40399932861328 C164.447998046875,-84.01300048828125 166.63499450683594,-83.5770034790039 168.85699462890625,-83.10800170898438 C171.27999877929688,-82.38300323486328 173.4459991455078,-81.64600372314453 175.42100524902344,-81.07599639892578 C178.54800415039062,-80.1719970703125 180.5240020751953,-79.45700073242188 183.03599548339844,-78.56400299072266 C187.85899353027344,-76.8219985961914 191.74400329589844,-75.15899658203125 196.89100646972656,-72.87000274658203 C197.63900756835938,-72.52400207519531 198.2760009765625,-72.15599822998047 199.00100708007812,-71.75299835205078 C199.00100708007812,-71.75299835205078 196.8800048828125,-72.37899780273438 196.8800048828125,-72.37899780273438 C196.8800048828125,-72.37899780273438 199.76100158691406,-70.77100372314453 199.76100158691406,-70.77100372314453 C202.9980010986328,-68.99600219726562 206.1020050048828,-67.16400146484375 210.31100463867188,-64.4520034790039 C217.00999450683594,-60.09700012207031 223.22900390625,-54.69300079345703 227.6060028076172,-47.99399948120117 C228.99400329589844,-45.821998596191406 230.1580047607422,-43.513999938964844 231.0780029296875,-41.10499954223633 C231.2899932861328,-40.36899948120117 231.468994140625,-39.72100067138672 231.63600158691406,-39.152000427246094 C231.8040008544922,-38.582000732421875 231.85899353027344,-38.03499984741211 231.9600067138672,-37.57699966430664 C232.14999389648438,-36.6510009765625 232.30599975585938,-35.92499923706055 232.47300720214844,-35.233001708984375 C232.8419952392578,-33.8489990234375 232.9980010986328,-32.553001403808594 233.49000549316406,-29.974000930786133 C233.49000549316406,-29.974000930786133 233.49000549316406,-28.534000396728516 233.49000549316406,-28.534000396728516 C233.49000549316406,-28.099000930786133 233.41099548339844,-27.70800018310547 233.3780059814453,-27.316999435424805 C233.31100463867188,-26.547000885009766 233.26600646972656,-25.820999145507812 233.2550048828125,-24.93899917602539 C233.24400329589844,-24.05699920654297 233.2550048828125,-23.041000366210938 233.156005859375,-21.6560001373291 C233.156005859375,-20.964000701904297 233.0760040283203,-20.183000564575195 233.02099609375,-19.299999237060547 C232.96499633789062,-18.417999267578125 232.96499633789062,-17.413999557495117 232.78599548339844,-16.274999618530273 C232.70799255371094,-14.845999717712402 232.61900329589844,-13.32699966430664 232.5399932861328,-11.809000015258789 C232.46200561523438,-10.289999961853027 232.19400024414062,-8.871999740600586 232.072998046875,-7.577000141143799 C231.98199462890625,-6.76200008392334 231.8820037841797,-5.86899995803833 231.72500610351562,-4.952000141143799 C231.72500610351562,-4.952000141143799 231.10000610351562,-2.1619999408721924 231.10000610351562,-2.1619999408721924 C231.10000610351562,-2.1619999408721924 230.47500610351562,0.6290000081062317 230.47500610351562,0.6290000081062317 C230.28500366210938,1.5329999923706055 230.00599670410156,2.371999979019165 229.8159942626953,3.1649999618530273 C229.57200622558594,4.28000020980835 229.33599853515625,5.263000011444092 229.1020050048828,6.301000118255615 C228.86700439453125,7.339000225067139 228.5989990234375,8.366000175476074 228.28700256347656,9.404999732971191 C227.74400329589844,11.401000022888184 227.06900024414062,13.359999656677246 226.26600646972656,15.265999794006348 C225.83099365234375,16.5049991607666 225.18899536132812,17.65999984741211 224.3679962158203,18.683000564575195 C224.1219940185547,18.983999252319336 223.7310028076172,19.64299964904785 223.38499450683594,20.16900062561035 C222.62600708007812,21.80900001525879 221.81100463867188,23.295000076293945 221.0749969482422,24.71299934387207 C220.4029998779297,26.07699966430664 219.65899658203125,27.40399932861328 218.84100341796875,28.687000274658203 C217.2779998779297,31.097999572753906 215.88299560546875,33.55400085449219 214.1739959716797,35.81999969482422 C213.48199462890625,36.87099838256836 212.81199645996094,37.909000396728516 212.14199829101562,38.93600082397461 C212.14199829101562,38.93600082397461 211.13800048828125,40.47700119018555 211.13800048828125,40.47700119018555 C211.13800048828125,40.47700119018555 210.02099609375,41.9630012512207 210.02099609375,41.9630012512207 C209.17300415039062,43.077999114990234 208.3350067138672,44.19499969482422 207.48800659179688,45.31100082397461 C207.48800659179688,45.31100082397461 206.2030029296875,46.99700164794922 206.2030029296875,46.99700164794922 C206.2030029296875,46.99700164794922 204.82899475097656,48.61600112915039 204.82899475097656,48.61600112915039 C203.23300170898438,50.459999084472656 201.47999572753906,52.51300048828125 200.0959930419922,54.07600021362305 C197.9409942626953,56.46500015258789 196.66799926757812,57.48099899291992 194.78199768066406,59.590999603271484 C194.71400451660156,59.724998474121094 194.63600158691406,59.87200164794922 194.60299682617188,59.96099853515625 C194.57200622558594,60.05799865722656 194.54800415039062,60.15800094604492 194.53599548339844,60.2599983215332 C190.8070068359375,63.72200012207031 188.9530029296875,65.5199966430664 187.46800231933594,66.96099853515625 C185.98300170898438,68.4010009765625 184.78900146484375,69.48300170898438 182.5,71.77200317382812 C182.5,71.77200317382812 181.8300018310547,72.38700103759766 181.8300018310547,72.38700103759766 C181.8300018310547,72.38700103759766 175.38800048828125,77.26599884033203 175.38800048828125,77.26599884033203 C173.7239990234375,78.6050033569336 171.8489990234375,79.88800048828125 168.1529998779297,82.52300262451172 C165.08299255371094,84.5009994506836 161.55499267578125,86.2979965209961 158.10499572753906,88.20800018310547 C157.468994140625,88.55400085449219 156.7760009765625,88.9000015258789 156.17300415039062,89.26799774169922 C153.48300170898438,90.84200286865234 151.1490020751953,92.05899810791016 149.0279998779297,93.1760025024414 C147.91200256347656,93.7229995727539 146.9510040283203,94.29299926757812 145.93499755859375,94.7509994506836 C145.93499755859375,94.7509994506836 142.88699340820312,96.15599822998047 142.88699340820312,96.15599822998047 C141.98300170898438,96.6259994506836 141.52499389648438,96.86000061035156 141.41400146484375,96.93800354003906 C140.2969970703125,97.67500305175781 138.4770050048828,98.65699768066406 136.61399841308594,99.69499969482422 C136.61399841308594,99.69499969482422 131.031005859375,102.4749984741211 131.031005859375,102.4749984741211 C130.41600036621094,102.78900146484375 129.16600036621094,103.35800170898438 128.25,103.76000213623047 C125.51499938964844,105.03299713134766 122.66799926757812,105.99199676513672 119.89900207519531,107.10900115966797 C117.12999725341797,108.2249984741211 114.3949966430664,109.34300231933594 111.64800262451172,110.14700317382812 C111.64800262451172,110.14700317382812 105.9990005493164,112.37999725341797 105.9990005493164,112.37999725341797 C104.69300079345703,112.79299926757812 103.44200134277344,113.21700286865234 102.2030029296875,113.58599853515625 C102.2030029296875,113.58599853515625 98.50700378417969,114.58999633789062 98.50700378417969,114.58999633789062 C96.0510025024414,115.27100372314453 93.61699676513672,115.99800109863281 91.01599884033203,116.9010009765625 C89.70999908447266,117.40399932861328 91.48500061035156,117.18099975585938 87.72200012207031,118.18499755859375 C87.72200012207031,118.18499755859375 77.91999816894531,120.21700286865234 77.91999816894531,120.21700286865234 C75.95500183105469,120.6520004272461 73.4540023803711,121.06600189208984 71.47799682617188,121.45800018310547 C71.47799682617188,121.45800018310547 62.54600143432617,123.69000244140625 62.54600143432617,123.69000244140625 C58.18000030517578,124.3489990234375 54.04899978637695,125.00599670410156 49.79600143432617,125.78900146484375 C44.70399856567383,126.41400146484375 41.02000045776367,127.06099700927734 37.513999938964844,127.6520004272461 C37.513999938964844,127.6520004272461 33.04800033569336,128.11099243164062 33.04800033569336,128.11099243164062 C31.674999237060547,128.1999969482422 30.368999481201172,128.29100036621094 29.051000595092773,128.41400146484375 C25.93600082397461,128.69200134277344 22.7549991607666,129.0709991455078 19.003000259399414,129.47300720214844 C11.756999969482422,129.79800415039062 2.993000030517578,130.18800354003906 -5.927999973297119,130.37899780273438 C-5.927999973297119,130.37899780273438 -12.090999603271484,130.37899780273438 -12.090999603271484,130.37899780273438 C-15.060999870300293,130.37899780273438 -14.670000076293945,130.19900512695312 -17.013999938964844,130.1320037841797 C-18.898000717163086,130.2989959716797 -20.79199981689453,130.2989959716797 -22.674999237060547,130.1320037841797 C-24.80699920654297,130.24400329589844 -26.63800048828125,130.4340057373047 -29.094999313354492,130.4340057373047 C-35.67100143432617,130.4340057373047 -40.895999908447266,130.58999633789062 -47.6619987487793,130.343994140625 C-51.86000061035156,130.18800354003906 -55.96799850463867,130.02000427246094 -60.21099853515625,129.77499389648438 C-61.249000549316406,129.63099670410156 -62.22100067138672,129.4510040283203 -63.63800048828125,129.28399658203125 C-66.89900207519531,128.8820037841797 -70.56099700927734,128.44500732421875 -74.71399688720703,128.0780029296875 C-79.41400146484375,127.66500091552734 -82.35099792480469,127.05000305175781 -86.77200317382812,126.50399780273438 C-90.02100372314453,126.0790023803711 -88.33499908447266,126.02200317382812 -90.85800170898438,125.60900115966797 C-90.85800170898438,125.60900115966797 -93.0459976196289,125.2979965209961 -93.0459976196289,125.2979965209961 C-94.87699890136719,125.10800170898438 -96.84200286865234,124.94000244140625 -99.06400299072266,124.68399810791016 C-104.85900115966797,123.45600128173828 -111.73600006103516,122.44999694824219 -117.7760009765625,121.177001953125 C-120.69400024414062,120.19100189208984 -123.67900085449219,119.4209976196289 -126.70800018310547,118.86699676513672 C-126.70800018310547,118.86699676513672 -131.78799438476562,117.7509994506836 -131.78799438476562,117.7509994506836 C-132.57000732421875,117.57099914550781 -133.39599609375,117.2699966430664 -134.1999969482422,117.03500366210938 C-134.1999969482422,117.03500366210938 -133.9320068359375,117.11299896240234 -133.9320068359375,117.11299896240234 C-134.9250030517578,116.84500122070312 -135.98599243164062,116.51100158691406 -136.8679962158203,116.29900360107422 C-142.4499969482422,114.88099670410156 -147.68699645996094,113.29499816894531 -153.1020050048828,111.41899871826172 C-158.02499389648438,109.6989974975586 -163.0050048828125,107.93599700927734 -167.19200134277344,106.52899932861328 C-170.3730010986328,105.46900177001953 -174.73899841308594,103.75 -178.71400451660156,101.9739990234375 C-180.85699462890625,101.05799865722656 -180.9459991455078,100.75700378417969 -182.5540008544922,99.98699951171875 C-185.56900024414062,98.625 -188.51600646972656,97.13800048828125 -191.48599243164062,95.58699798583984 C-191.072998046875,95.95600128173828 -190.6490020751953,96.29100036621094 -190.16900634765625,96.7040023803711 C-192.10000610351562,95.65299987792969 -193.6300048828125,94.69400024414062 -195.0590057373047,93.86799621582031 C-196.66700744628906,92.875 -198.18499755859375,92.00499725341797 -199.52499389648438,91.13300323486328 C-202.49400329589844,88.9000015258789 -204.4600067138672,87.17900085449219 -206.41299438476562,85.54900360107422 C-208.36700439453125,83.91999816894531 -210.27699279785156,82.19999694824219 -212.88900756835938,79.71099853515625 C-215.4239959716797,77.28900146484375 -217.69500732421875,74.60600280761719 -219.66600036621094,71.70700073242188 C-220.08999633789062,71.06900024414062 -220.78199768066406,70.24299621582031 -221.25100708007812,69.4729995727539 C-221.94400024414062,68.50199890136719 -222.66900634765625,67.5739974975586 -223.30599975585938,66.5250015258789 C-223.30599975585938,66.5250015258789 -224.343994140625,64.94000244140625 -224.343994140625,64.94000244140625 C-224.6790008544922,64.38099670410156 -225.0030059814453,63.823001861572266 -225.36000061035156,63.165000915527344 C-226.92100524902344,60.112998962402344 -228.18800354003906,56.92100143432617 -229.14500427246094,53.630001068115234 C-229.45700073242188,52.51300048828125 -229.69200134277344,51.56399917602539 -229.947998046875,50.69300079345703 C-230.2050018310547,49.821998596191406 -230.39500427246094,49.018001556396484 -230.5959930419922,48.249000549316406 C-230.5959930419922,48.694000244140625 -230.3509979248047,49.777000427246094 -230.16099548339844,50.672000885009766 C-229.9709930419922,51.56399917602539 -229.781005859375,52.266998291015625 -229.98199462890625,51.987998962402344 C-230.4429931640625,50.465999603271484 -230.81500244140625,48.91999816894531 -231.0989990234375,47.35499954223633 C-231.32000732421875,45.98099899291992 -231.44700622558594,44.59299850463867 -231.47799682617188,43.20100021362305 C-231.47799682617188,42.33100128173828 -231.47799682617188,41.63800048828125 -231.57899475097656,40.042999267578125 C-231.57899475097656,39.22600173950195 -231.64599609375,38.52299880981445 -231.65699768066406,37.89799880981445 C-231.66799926757812,37.27299880981445 -231.55599975585938,36.7140007019043 -231.51199340820312,36.176998138427734 C-231.39999389648438,35.12900161743164 -231.28799438476562,34.191001892089844 -231.24400329589844,33.04199981689453 C-231.12100219726562,31.033000946044922 -230.8979949951172,29.031999588012695 -230.57400512695312,27.04599952697754 C-229.2449951171875,23.695999145507812 -229.5469970703125,23.69499969482422 -226.84500122070312,15.979999542236328 C-226.1529998779297,14.137999534606934 -225.28199768066406,12.107000350952148 -224.5449981689453,10.39799976348877 C-223.98699951171875,8.968999862670898 -223.26100158691406,7.60699987411499 -222.61300659179688,6.25600004196167 C-222.61300659179688,6.25600004196167 -220.71600341796875,2.2699999809265137 -220.71600341796875,2.2699999809265137 C-219.37600708007812,-0.28600001335144043 -218.0800018310547,-2.687000036239624 -216.98699951171875,-4.886000156402588 C-216.19400024414062,-6.394000053405762 -215.11099243164062,-8.045999526977539 -214.1510009765625,-9.664999961853027 C-213.19000244140625,-11.284000396728516 -212.30799865722656,-12.847000122070312 -211.60499572753906,-13.95199966430664 C-210.90199279785156,-15.057999610900879 -209.09300231933594,-17.636999130249023 -207.57400512695312,-19.53499984741211 C-206.52499389648438,-20.952999114990234 -205.26300048828125,-22.270000457763672 -204.06900024414062,-23.700000762939453 C-202.87399291992188,-25.128999710083008 -201.61199951171875,-26.601999282836914 -200.3509979248047,-28.166000366210938 C-197.6269989013672,-31.236000061035156 -196.0970001220703,-32.50899887084961 -193.90899658203125,-34.79800033569336 C-193.22799682617188,-35.60100173950195 -192.79200744628906,-36.22700119018555 -192.10000610351562,-36.874000549316406 C-188.8730010986328,-40.222999572753906 -188.01400756835938,-41.1609992980957 -183.77099609375,-45.01300048828125 C-183.32400512695312,-45.40399932861328 -182.56500244140625,-46.02899932861328 -182.45399475097656,-46.130001068115234 C-181.11399841308594,-47.513999938964844 -178.33399963378906,-49.83700180053711 -176.87100219726562,-51.28799819946289 C-176.4810028076172,-51.65700149536133 -176.11199951171875,-52.025001525878906 -175.7550048828125,-52.404998779296875 C-175.7550048828125,-52.404998779296875 -174.5489959716797,-53.39799880981445 -174.5489959716797,-53.39799880981445 C-174.5489959716797,-53.39799880981445 -172.08200073242188,-55.374000549316406 -172.08200073242188,-55.374000549316406 C-170.40699768066406,-56.680999755859375 -168.73199462890625,-57.97600173950195 -166.8679962158203,-59.30500030517578 C-165.61700439453125,-60.2760009765625 -164.18800354003906,-61.124000549316406 -162.8040008544922,-62.07400131225586 C-159.96499633789062,-64.36599731445312 -156.98899841308594,-66.48300170898438 -153.8939971923828,-68.41500091552734 C-153.2469940185547,-68.78399658203125 -152.11900329589844,-69.53199768066406 -151.2259979248047,-70.0790023803711 C-148.9929962158203,-71.46299743652344 -146.8489990234375,-72.82599639892578 -145.0290069580078,-73.89700317382812 C-144.125,-74.43299865722656 -143.30999755859375,-74.91300201416016 -142.6179962158203,-75.25900268554688 C-142.072998046875,-75.53299713134766 -141.50599670410156,-75.75800323486328 -140.92100524902344,-75.92900085449219 C-140.92100524902344,-75.92900085449219 -133.17300415039062,-79.68099975585938 -133.17300415039062,-79.68099975585938 C-132.1230010986328,-80.27200317382812 -131.01800537109375,-80.86399841308594 -130.29200744628906,-81.30000305175781 C-127.0770034790039,-83.11900329589844 -123.28099822998047,-84.99500274658203 -120.99199676513672,-86.39099884033203 C-120.177001953125,-86.87100219726562 -119.41799926757812,-87.27300262451172 -117.98899841308594,-87.98799896240234 C-115.61000061035156,-89.23799896240234 -113.22100067138672,-90.22100067138672 -110.94400024414062,-91.33699798583984 C-110.94400024414062,-91.33699798583984 -109.31300354003906,-91.94000244140625 -109.31300354003906,-91.94000244140625 C-106.37799835205078,-92.87799835205078 -103.52799987792969,-94.06600189208984 -100.79499816894531,-95.48999786376953 C-96.58599853515625,-97.05400085449219 -92.75599670410156,-98.73899841308594 -88.34600067138672,-100.25800323486328 C-87.2300033569336,-100.61499786376953 -85.6780014038086,-101.26300048828125 -84.3270034790039,-101.7760009765625 C-84.3270034790039,-101.7760009765625 -84.59500122070312,-101.63099670410156 -84.59500122070312,-101.63099670410156z M-198.24099731445312,-31.29199981689453 C-197.9949951171875,-31.582000732421875 -197.2689971923828,-32.33000183105469 -197.0570068359375,-32.52000045776367 C-196.84500122070312,-32.709999084472656 -196.91200256347656,-32.52000045776367 -197.14700317382812,-32.27399826049805 C-197.14700317382812,-32.27399826049805 -199.81500244140625,-29.159000396728516 -199.81500244140625,-29.159000396728516 C-200.96499633789062,-28.209999084472656 -199.30099487304688,-30.052000045776367 -198.24099731445312,-31.2810001373291 C-198.24099731445312,-31.2810001373291 -198.24099731445312,-31.29199981689453 -198.24099731445312,-31.29199981689453z M236.06900024414062,-12.310999870300293 C236.06900024414062,-12.310999870300293 236.16900634765625,-12.579000473022461 236.16900634765625,-12.579000473022461 C236.16900634765625,-12.244000434875488 236.09100341796875,-11.852999687194824 236.06900024414062,-11.597000122070312 C236.06300354003906,-11.522000312805176 236.0399932861328,-11.449000358581543 236.0019989013672,-11.383999824523926 C236.0019989013672,-11.383999824523926 236.06900024414062,-12.310999870300293 236.06900024414062,-12.310999870300293z M-220.88299560546875,1.9019999504089355 C-220.88299560546875,1.9019999504089355 -220.7270050048828,1.7230000495910645 -220.7270050048828,1.7230000495910645 C-220.8489990234375,1.9910000562667847 -221.00599670410156,2.2939999103546143 -221.1060028076172,2.49399995803833 C-221.13299560546875,2.5490000247955322 -221.1719970703125,2.5980000495910645 -221.21800231933594,2.6389999389648438 C-221.21800231933594,2.6389999389648438 -220.88299560546875,1.9019999504089355 -220.88299560546875,1.9019999504089355z"></path>
        </g>
      </g>
    </g>
  </g>
</svg>